<svg xmlns="http://www.w3.org/2000/svg" viewBox="0 0 480 672" width="480" height="672">
  <!-- Generated by scripts/generate-doodles.mjs — edit that, not this.
       Strokes are solid white: light mode uses the tile directly
       (white-on-gray, ref image 1); dark mode uses it as a CSS mask over a
       color gradient (ref image 2). Opacity lives in src/index.css. -->
  <g fill="none" stroke="#ffffff" stroke-width="2.4" stroke-linecap="round" stroke-linejoin="round" opacity="1">
    <g transform="translate(23.3 28.9) rotate(6.1) scale(0.82)"><!-- lightning --><path d="M2 -11 l-9 12 h6 l-3 10 l10 -13 h-6 z"/></g>
    <g transform="translate(23.3 700.9) rotate(6.1) scale(0.82)"><!-- lightning --><path d="M2 -11 l-9 12 h6 l-3 10 l10 -13 h-6 z"/></g>
    <g transform="translate(503.3 28.9) rotate(6.1) scale(0.82)"><!-- lightning --><path d="M2 -11 l-9 12 h6 l-3 10 l10 -13 h-6 z"/></g>
    <g transform="translate(503.3 700.9) rotate(6.1) scale(0.82)"><!-- lightning --><path d="M2 -11 l-9 12 h6 l-3 10 l10 -13 h-6 z"/></g>
    <g transform="translate(73.4 20.4) rotate(5.2) scale(0.82)"><!-- hourglass --><path d="M-6 -10 h12 M-6 10 h12 M-5 -10 q0 7 5 10 q-5 3 -5 10 M5 -10 q0 7 -5 10 q5 3 5 10"/></g>
    <g transform="translate(73.4 692.4) rotate(5.2) scale(0.82)"><!-- hourglass --><path d="M-6 -10 h12 M-6 10 h12 M-5 -10 q0 7 5 10 q-5 3 -5 10 M5 -10 q0 7 -5 10 q5 3 5 10"/></g>
    <g transform="translate(117.3 27.3) rotate(12.9) scale(0.82)"><!-- bicep --><path d="M-11 11 q-1 -13 7 -15 l1 -5 q0 -2 2 -2 l4 1 q2 1 1 3 l-1 5 q8 3 7 13"/><circle cx="3" cy="-9" r="2.2"/></g>
    <g transform="translate(117.3 699.3) rotate(12.9) scale(0.82)"><!-- bicep --><path d="M-11 11 q-1 -13 7 -15 l1 -5 q0 -2 2 -2 l4 1 q2 1 1 3 l-1 5 q8 3 7 13"/><circle cx="3" cy="-9" r="2.2"/></g>
    <g transform="translate(163.9 21.0) rotate(-7.5) scale(0.82)"><!-- mat --><circle r="7"/><path d="M0 0 q4 0 4 -4"/><path d="M-13 10 h26"/></g>
    <g transform="translate(163.9 693.0) rotate(-7.5) scale(0.82)"><!-- mat --><circle r="7"/><path d="M0 0 q4 0 4 -4"/><path d="M-13 10 h26"/></g>
    <g transform="translate(218.2 26.5) rotate(7.0) scale(1)"><!-- moon --><path d="M3 -11 a11 11 0 1 0 7 17 a9 9 0 0 1 -7 -17"/><path d="M11 -4 v6 M8 -1 h6"/></g>
    <g transform="translate(218.2 698.5) rotate(7.0) scale(1)"><!-- moon --><path d="M3 -11 a11 11 0 1 0 7 17 a9 9 0 0 1 -7 -17"/><path d="M11 -4 v6 M8 -1 h6"/></g>
    <g transform="translate(258.2 30.2) rotate(-2.5) scale(0.58)"><!-- breath --><path d="M-10 -6 q4 -3 8 0 t8 0 M-10 0 q4 -3 8 0 t8 0 M-10 6 q4 -3 8 0 t8 0"/></g>
    <g transform="translate(306.9 18.6) rotate(-17.4) scale(0.58)"><!-- heart --><path d="M0 9 C -11 2 -10 -8 -4 -8 C -1 -8 0 -5 0 -5 C 0 -5 1 -8 4 -8 C 10 -8 11 2 0 9 Z"/><path d="M-8 -1 h4 l2 -4 l3 7 l2 -3 h4"/></g>
    <g transform="translate(306.9 690.6) rotate(-17.4) scale(0.58)"><!-- heart --><path d="M0 9 C -11 2 -10 -8 -4 -8 C -1 -8 0 -5 0 -5 C 0 -5 1 -8 4 -8 C 10 -8 11 2 0 9 Z"/><path d="M-8 -1 h4 l2 -4 l3 7 l2 -3 h4"/></g>
    <g transform="translate(359.7 25.6) rotate(14.4) scale(0.82)"><!-- bubble --><rect x="-11" y="-9" width="22" height="14" rx="4"/><path d="M-4 5 l-3 5 l7 -5"/><text y="1.5" text-anchor="middle" font-size="8" font-weight="700" fill="#ffffff" stroke="none" font-family="-apple-system, Helvetica, sans-serif">HI</text></g>
    <g transform="translate(359.7 697.6) rotate(14.4) scale(0.82)"><!-- bubble --><rect x="-11" y="-9" width="22" height="14" rx="4"/><path d="M-4 5 l-3 5 l7 -5"/><text y="1.5" text-anchor="middle" font-size="8" font-weight="700" fill="#ffffff" stroke="none" font-family="-apple-system, Helvetica, sans-serif">HI</text></g>
    <g transform="translate(411.1 30.1) rotate(-8.0) scale(1)"><!-- mug --><rect x="-10" y="-4" width="15" height="13" rx="3"/><path d="M5 -2 a4.5 4.5 0 0 1 0 9"/><path d="M-6 -9 q2 -3 0 -6 M1 -9 q2 -3 0 -6"/></g>
    <g transform="translate(451.5 24.3) rotate(11.6) scale(0.58)"><!-- zzz --><path d="M-9 -9 h8 l-8 8 h8"/><path d="M3 -2 h6 l-6 6 h6"/></g>
    <g transform="translate(451.5 696.3) rotate(11.6) scale(0.58)"><!-- zzz --><path d="M-9 -9 h8 l-8 8 h8"/><path d="M3 -2 h6 l-6 6 h6"/></g>
    <g transform="translate(-28.5 24.3) rotate(11.6) scale(0.58)"><!-- zzz --><path d="M-9 -9 h8 l-8 8 h8"/><path d="M3 -2 h6 l-6 6 h6"/></g>
    <g transform="translate(-28.5 696.3) rotate(11.6) scale(0.58)"><!-- zzz --><path d="M-9 -9 h8 l-8 8 h8"/><path d="M3 -2 h6 l-6 6 h6"/></g>
    <g transform="translate(54.9 72.9) rotate(15.0) scale(1)"><!-- shoe --><path d="M-15 5 q-1 -9 6 -9 q5 0 8 5 q3 4 8 4 h7 q2 5 -3 5 h-24 q-2 0 -2 -5"/><path d="M-5 -2 l3 3 M-1 -4 l3 3"/></g>
    <g transform="translate(97.1 69.7) rotate(3.5) scale(0.82)"><!-- fivek --><rect x="-11" y="-8" width="22" height="16" rx="4"/><text y="3.5" text-anchor="middle" font-size="9" font-weight="700" fill="#ffffff" stroke="none" font-family="-apple-system, Helvetica, sans-serif">5K</text></g>
    <g transform="translate(147.2 69.1) rotate(-1.8) scale(0.82)"><!-- bowl --><path d="M-12 -2 h24"/><path d="M-12 -2 a12 11 0 0 0 24 0"/><path d="M5 -14 l7 7"/><circle cx="3.5" cy="-15.5" r="2.5"/><path d="M17 -8 q3 4 0 8"/></g>
    <g transform="translate(194.7 78.9) rotate(14.0) scale(0.58)"><!-- confetti --><path d="M-8 -8 l3 3 M7 -10 l2 4 M-10 5 l4 2 M8 8 l-3 -3"/><circle cx="0" cy="-2" r="1.7"/><circle cx="10" cy="0" r="1.7"/><circle cx="-6" cy="-13" r="1.7"/></g>
    <g transform="translate(240.6 69.1) rotate(-14.4) scale(0.82)"><!-- check --><circle r="9"/><path d="M-4 0 l3 3 l6 -7"/></g>
    <g transform="translate(285.4 76.0) rotate(14.6) scale(0.82)"><!-- smiley --><circle r="9"/><path d="M-3.5 -3 v1.5 M3.5 -3 v1.5"/><path d="M-4 2.5 q4 4 8 0"/><path d="M11 -8 q3 4 0 6 q-3 -2 0 -6"/></g>
    <g transform="translate(335.7 76.5) rotate(-13.3) scale(1)"><!-- bottle --><rect x="-5" y="-7" width="10" height="19" rx="3"/><path d="M-3 -7 v-4 h6 v4 M-5 1 h10"/></g>
    <g transform="translate(379.5 74.9) rotate(7.2) scale(0.58)"><!-- reps --><text y="4" text-anchor="middle" font-size="11" font-weight="700" fill="#ffffff" stroke="none" font-family="-apple-system, Helvetica, sans-serif">3x15</text></g>
    <g transform="translate(430.8 67.3) rotate(5.6) scale(0.82)"><!-- trophy --><path d="M-7 -11 h14 v6 a7 7 0 0 1 -14 0 z"/><path d="M-7 -9 q-5 0 -4 5 q1 4 4 3 M7 -9 q5 0 4 5 q-1 4 -4 3"/><path d="M0 2 v5 M-5 11 h10 M-3 7.5 h6"/></g>
    <g transform="translate(475.9 73.8) rotate(13.9) scale(0.82)"><!-- mwf --><text y="3.5" text-anchor="middle" font-size="9" font-weight="700" fill="#ffffff" stroke="none" font-family="-apple-system, Helvetica, sans-serif">M/W/F</text></g>
    <g transform="translate(-4.1 73.8) rotate(13.9) scale(0.82)"><!-- mwf --><text y="3.5" text-anchor="middle" font-size="9" font-weight="700" fill="#ffffff" stroke="none" font-family="-apple-system, Helvetica, sans-serif">M/W/F</text></g>
    <g transform="translate(28.1 118.5) rotate(-13.3) scale(0.82)"><!-- dumbbell --><path d="M-14 -7 v14 M-9 -10 v20 M9 -10 v20 M14 -7 v14 M-9 0 h18"/></g>
    <g transform="translate(508.1 118.5) rotate(-13.3) scale(0.82)"><!-- dumbbell --><path d="M-14 -7 v14 M-9 -10 v20 M9 -10 v20 M14 -7 v14 M-9 0 h18"/></g>
    <g transform="translate(70.2 113.1) rotate(8.5) scale(0.58)"><!-- stressball --><circle r="8"/><path d="M-12 -3 q-2 3 0 6 M12 -3 q2 3 0 6"/></g>
    <g transform="translate(125.3 125.7) rotate(-10.5) scale(0.82)"><!-- dowel --><path d="M-13 13 L13 -13 M-11 6 l5 5 M6 -11 l5 5"/></g>
    <g transform="translate(167.8 115.6) rotate(-16.3) scale(0.82)"><!-- sun --><circle r="6"/><path d="M0 -13 v4 M0 9 v4 M-13 0 h4 M9 0 h4 M-9 -9 l2.5 2.5 M6.5 6.5 l2.5 2.5 M-9 9 l2.5 -2.5 M6.5 -6.5 l2.5 -2.5"/></g>
    <g transform="translate(218.9 117.1) rotate(-8.1) scale(0.58)"><!-- stopwatch --><circle cx="0" cy="2" r="11"/><path d="M0 2 v-6 M0 -13 v4 M-4 -13 h8 M9 -9 l3 -3"/></g>
    <g transform="translate(257.4 116.1) rotate(17.8) scale(0.82)"><!-- jumprope --><path d="M-12 -6 q-5 14 9 16 q14 2 16 -12"/><path d="M-12 -6 l-2 -6 M13 -2 l3 -6"/></g>
    <g transform="translate(318.8 115.3) rotate(-11.8) scale(0.82)"><!-- kettlebell --><circle cy="4" r="9.5"/><path d="M-5.5 -3 a 7 7 0 0 1 11 0"/></g>
    <g transform="translate(357.1 118.5) rotate(-2.4) scale(0.82)"><!-- target --><circle r="10"/><circle r="5.5"/><circle r="1.4"/></g>
    <g transform="translate(410.6 118.6) rotate(-5.9) scale(0.82)"><!-- sparkle --><path d="M0 -9 L2 -2 L9 0 L2 2 L0 9 L-2 2 L-9 0 L-2 -2 Z"/></g>
    <g transform="translate(453.6 119.9) rotate(4.0) scale(0.58)"><!-- footprints --><ellipse cx="-6" cy="-2" rx="3.5" ry="6"/><circle cx="-6" cy="-10.5" r="1.7"/><ellipse cx="6" cy="7" rx="3.5" ry="6"/><circle cx="6" cy="-1.5" r="1.7"/></g>
    <g transform="translate(-26.4 119.9) rotate(4.0) scale(0.58)"><!-- footprints --><ellipse cx="-6" cy="-2" rx="3.5" ry="6"/><circle cx="-6" cy="-10.5" r="1.7"/><ellipse cx="6" cy="7" rx="3.5" ry="6"/><circle cx="6" cy="-1.5" r="1.7"/></g>
    <g transform="translate(49.3 164.3) rotate(-6.3) scale(0.82)"><!-- banana --><path d="M-10 -4 q0 12 13 12 q5 0 7 -3 q-4 1 -8 0 q-10 -2 -9 -9 z"/><path d="M-10 -4 l-1.5 -3.5"/></g>
    <g transform="translate(93.5 170.4) rotate(-10.0) scale(0.82)"><!-- towel --><path d="M-10 -12 h14 q4 0 4 4 v16 M-10 -12 v20 q0 4 4 4 h13"/></g>
    <g transform="translate(146.7 165.4) rotate(-13.5) scale(1)"><!-- roller --><ellipse cx="-10" cy="0" rx="4" ry="8"/><path d="M-10 -8 h20 a4 8 0 0 1 0 16 h-20"/></g>
    <g transform="translate(185.6 169.1) rotate(-10.5) scale(0.82)"><!-- spiral --><path d="M1 1 q5 -1 4 -6 q-1 -7 -9 -6 q-10 1 -9 11 q1 12 14 11"/></g>
    <g transform="translate(238.3 171.0) rotate(14.9) scale(0.82)"><!-- band --><circle cx="-14" cy="-7" r="3.5"/><circle cx="14" cy="7" r="3.5"/><path d="M-11 -5 C -4 1 4 -1 11 5"/></g>
    <g transform="translate(287.2 163.2) rotate(13.2) scale(0.58)"><!-- dumbbell --><path d="M-14 -7 v14 M-9 -10 v20 M9 -10 v20 M14 -7 v14 M-9 0 h18"/></g>
    <g transform="translate(340.8 163.1) rotate(-4.8) scale(0.82)"><!-- reps --><text y="4" text-anchor="middle" font-size="11" font-weight="700" fill="#ffffff" stroke="none" font-family="-apple-system, Helvetica, sans-serif">3x15</text></g>
    <g transform="translate(378.2 170.1) rotate(8.1) scale(1)"><!-- lightning --><path d="M2 -11 l-9 12 h6 l-3 10 l10 -13 h-6 z"/></g>
    <g transform="translate(437.3 167.5) rotate(7.5) scale(0.58)"><!-- zzz --><path d="M-9 -9 h8 l-8 8 h8"/><path d="M3 -2 h6 l-6 6 h6"/></g>
    <g transform="translate(476.8 162.9) rotate(-16.3) scale(1)"><!-- band --><circle cx="-14" cy="-7" r="3.5"/><circle cx="14" cy="7" r="3.5"/><path d="M-11 -5 C -4 1 4 -1 11 5"/></g>
    <g transform="translate(-3.2 162.9) rotate(-16.3) scale(1)"><!-- band --><circle cx="-14" cy="-7" r="3.5"/><circle cx="14" cy="7" r="3.5"/><path d="M-11 -5 C -4 1 4 -1 11 5"/></g>
    <g transform="translate(23.2 217.0) rotate(7.8) scale(0.82)"><!-- sun --><circle r="6"/><path d="M0 -13 v4 M0 9 v4 M-13 0 h4 M9 0 h4 M-9 -9 l2.5 2.5 M6.5 6.5 l2.5 2.5 M-9 9 l2.5 -2.5 M6.5 -6.5 l2.5 -2.5"/></g>
    <g transform="translate(503.2 217.0) rotate(7.8) scale(0.82)"><!-- sun --><circle r="6"/><path d="M0 -13 v4 M0 9 v4 M-13 0 h4 M9 0 h4 M-9 -9 l2.5 2.5 M6.5 6.5 l2.5 2.5 M-9 9 l2.5 -2.5 M6.5 -6.5 l2.5 -2.5"/></g>
    <g transform="translate(76.0 211.7) rotate(6.0) scale(0.58)"><!-- spiral --><path d="M1 1 q5 -1 4 -6 q-1 -7 -9 -6 q-10 1 -9 11 q1 12 14 11"/></g>
    <g transform="translate(119.2 215.6) rotate(-1.5) scale(0.82)"><!-- bowl --><path d="M-12 -2 h24"/><path d="M-12 -2 a12 11 0 0 0 24 0"/><path d="M5 -14 l7 7"/><circle cx="3.5" cy="-15.5" r="2.5"/><path d="M17 -8 q3 4 0 8"/></g>
    <g transform="translate(165.6 213.3) rotate(-12.7) scale(0.82)"><!-- check --><circle r="9"/><path d="M-4 0 l3 3 l6 -7"/></g>
    <g transform="translate(212.7 216.4) rotate(1.7) scale(0.82)"><!-- mat --><circle r="7"/><path d="M0 0 q4 0 4 -4"/><path d="M-13 10 h26"/></g>
    <g transform="translate(263.1 210.9) rotate(-17.9) scale(0.82)"><!-- roller --><ellipse cx="-10" cy="0" rx="4" ry="8"/><path d="M-10 -8 h20 a4 8 0 0 1 0 16 h-20"/></g>
    <g transform="translate(318.2 210.0) rotate(13.3) scale(1)"><!-- sparkle --><path d="M0 -9 L2 -2 L9 0 L2 2 L0 9 L-2 2 L-9 0 L-2 -2 Z"/></g>
    <g transform="translate(360.0 210.4) rotate(11.6) scale(0.82)"><!-- kettlebell --><circle cy="4" r="9.5"/><path d="M-5.5 -3 a 7 7 0 0 1 11 0"/></g>
    <g transform="translate(406.2 212.2) rotate(7.3) scale(1)"><!-- stressball --><circle r="8"/><path d="M-12 -3 q-2 3 0 6 M12 -3 q2 3 0 6"/></g>
    <g transform="translate(450.3 222.5) rotate(9.0) scale(0.82)"><!-- smiley --><circle r="9"/><path d="M-3.5 -3 v1.5 M3.5 -3 v1.5"/><path d="M-4 2.5 q4 4 8 0"/><path d="M11 -8 q3 4 0 6 q-3 -2 0 -6"/></g>
    <g transform="translate(52.1 264.7) rotate(11.0) scale(0.82)"><!-- banana --><path d="M-10 -4 q0 12 13 12 q5 0 7 -3 q-4 1 -8 0 q-10 -2 -9 -9 z"/><path d="M-10 -4 l-1.5 -3.5"/></g>
    <g transform="translate(91.5 258.1) rotate(-14.5) scale(0.82)"><!-- moon --><path d="M3 -11 a11 11 0 1 0 7 17 a9 9 0 0 1 -7 -17"/><path d="M11 -4 v6 M8 -1 h6"/></g>
    <g transform="translate(140.7 266.4) rotate(6.1) scale(1)"><!-- heart --><path d="M0 9 C -11 2 -10 -8 -4 -8 C -1 -8 0 -5 0 -5 C 0 -5 1 -8 4 -8 C 10 -8 11 2 0 9 Z"/><path d="M-8 -1 h4 l2 -4 l3 7 l2 -3 h4"/></g>
    <g transform="translate(198.7 257.3) rotate(-3.7) scale(0.82)"><!-- trophy --><path d="M-7 -11 h14 v6 a7 7 0 0 1 -14 0 z"/><path d="M-7 -9 q-5 0 -4 5 q1 4 4 3 M7 -9 q5 0 4 5 q-1 4 -4 3"/><path d="M0 2 v5 M-5 11 h10 M-3 7.5 h6"/></g>
    <g transform="translate(237.0 268.7) rotate(1.3) scale(0.82)"><!-- mug --><rect x="-10" y="-4" width="15" height="13" rx="3"/><path d="M5 -2 a4.5 4.5 0 0 1 0 9"/><path d="M-6 -9 q2 -3 0 -6 M1 -9 q2 -3 0 -6"/></g>
    <g transform="translate(294.2 270.3) rotate(-8.4) scale(0.82)"><!-- dowel --><path d="M-13 13 L13 -13 M-11 6 l5 5 M6 -11 l5 5"/></g>
    <g transform="translate(341.0 270.1) rotate(6.7) scale(0.82)"><!-- mwf --><text y="3.5" text-anchor="middle" font-size="9" font-weight="700" fill="#ffffff" stroke="none" font-family="-apple-system, Helvetica, sans-serif">M/W/F</text></g>
    <g transform="translate(388.3 261.4) rotate(-0.2) scale(0.82)"><!-- towel --><path d="M-10 -12 h14 q4 0 4 4 v16 M-10 -12 v20 q0 4 4 4 h13"/></g>
    <g transform="translate(432.7 266.6) rotate(2.0) scale(0.58)"><!-- bicep --><path d="M-11 11 q-1 -13 7 -15 l1 -5 q0 -2 2 -2 l4 1 q2 1 1 3 l-1 5 q8 3 7 13"/><circle cx="3" cy="-9" r="2.2"/></g>
    <g transform="translate(6.5 270.8) rotate(9.6) scale(0.82)"><!-- target --><circle r="10"/><circle r="5.5"/><circle r="1.4"/></g>
    <g transform="translate(486.5 270.8) rotate(9.6) scale(0.82)"><!-- target --><circle r="10"/><circle r="5.5"/><circle r="1.4"/></g>
    <g transform="translate(25.8 314.4) rotate(13.1) scale(0.82)"><!-- fivek --><rect x="-11" y="-8" width="22" height="16" rx="4"/><text y="3.5" text-anchor="middle" font-size="9" font-weight="700" fill="#ffffff" stroke="none" font-family="-apple-system, Helvetica, sans-serif">5K</text></g>
    <g transform="translate(505.8 314.4) rotate(13.1) scale(0.82)"><!-- fivek --><rect x="-11" y="-8" width="22" height="16" rx="4"/><text y="3.5" text-anchor="middle" font-size="9" font-weight="700" fill="#ffffff" stroke="none" font-family="-apple-system, Helvetica, sans-serif">5K</text></g>
    <g transform="translate(77.3 309.4) rotate(13.7) scale(0.82)"><!-- bottle --><rect x="-5" y="-7" width="10" height="19" rx="3"/><path d="M-3 -7 v-4 h6 v4 M-5 1 h10"/></g>
    <g transform="translate(117.8 312.5) rotate(12.1) scale(0.82)"><!-- shoe --><path d="M-15 5 q-1 -9 6 -9 q5 0 8 5 q3 4 8 4 h7 q2 5 -3 5 h-24 q-2 0 -2 -5"/><path d="M-5 -2 l3 3 M-1 -4 l3 3"/></g>
    <g transform="translate(173.1 314.7) rotate(-12.6) scale(0.82)"><!-- hourglass --><path d="M-6 -10 h12 M-6 10 h12 M-5 -10 q0 7 5 10 q-5 3 -5 10 M5 -10 q0 7 -5 10 q5 3 5 10"/></g>
    <g transform="translate(222.5 311.8) rotate(-8.1) scale(0.82)"><!-- bubble --><rect x="-11" y="-9" width="22" height="14" rx="4"/><path d="M-4 5 l-3 5 l7 -5"/><text y="1.5" text-anchor="middle" font-size="8" font-weight="700" fill="#ffffff" stroke="none" font-family="-apple-system, Helvetica, sans-serif">HI</text></g>
    <g transform="translate(267.8 315.3) rotate(7.7) scale(0.82)"><!-- stopwatch --><circle cx="0" cy="2" r="11"/><path d="M0 2 v-6 M0 -13 v4 M-4 -13 h8 M9 -9 l3 -3"/></g>
    <g transform="translate(316.9 317.6) rotate(1.6) scale(1)"><!-- footprints --><ellipse cx="-6" cy="-2" rx="3.5" ry="6"/><circle cx="-6" cy="-10.5" r="1.7"/><ellipse cx="6" cy="7" rx="3.5" ry="6"/><circle cx="6" cy="-1.5" r="1.7"/></g>
    <g transform="translate(354.0 312.0) rotate(14.2) scale(0.82)"><!-- breath --><path d="M-10 -6 q4 -3 8 0 t8 0 M-10 0 q4 -3 8 0 t8 0 M-10 6 q4 -3 8 0 t8 0"/></g>
    <g transform="translate(406.9 311.2) rotate(4.2) scale(0.82)"><!-- jumprope --><path d="M-12 -6 q-5 14 9 16 q14 2 16 -12"/><path d="M-12 -6 l-2 -6 M13 -2 l3 -6"/></g>
    <g transform="translate(456.3 305.6) rotate(-12.0) scale(0.58)"><!-- confetti --><path d="M-8 -8 l3 3 M7 -10 l2 4 M-10 5 l4 2 M8 8 l-3 -3"/><circle cx="0" cy="-2" r="1.7"/><circle cx="10" cy="0" r="1.7"/><circle cx="-6" cy="-13" r="1.7"/></g>
    <g transform="translate(-23.7 305.6) rotate(-12.0) scale(0.58)"><!-- confetti --><path d="M-8 -8 l3 3 M7 -10 l2 4 M-10 5 l4 2 M8 8 l-3 -3"/><circle cx="0" cy="-2" r="1.7"/><circle cx="10" cy="0" r="1.7"/><circle cx="-6" cy="-13" r="1.7"/></g>
    <g transform="translate(42.7 358.3) rotate(11.8) scale(1)"><!-- heart --><path d="M0 9 C -11 2 -10 -8 -4 -8 C -1 -8 0 -5 0 -5 C 0 -5 1 -8 4 -8 C 10 -8 11 2 0 9 Z"/><path d="M-8 -1 h4 l2 -4 l3 7 l2 -3 h4"/></g>
    <g transform="translate(93.8 362.1) rotate(-16.8) scale(0.58)"><!-- spiral --><path d="M1 1 q5 -1 4 -6 q-1 -7 -9 -6 q-10 1 -9 11 q1 12 14 11"/></g>
    <g transform="translate(148.2 358.3) rotate(-10.6) scale(0.58)"><!-- confetti --><path d="M-8 -8 l3 3 M7 -10 l2 4 M-10 5 l4 2 M8 8 l-3 -3"/><circle cx="0" cy="-2" r="1.7"/><circle cx="10" cy="0" r="1.7"/><circle cx="-6" cy="-13" r="1.7"/></g>
    <g transform="translate(192.1 354.9) rotate(-15.0) scale(0.58)"><!-- band --><circle cx="-14" cy="-7" r="3.5"/><circle cx="14" cy="7" r="3.5"/><path d="M-11 -5 C -4 1 4 -1 11 5"/></g>
    <g transform="translate(239.0 365.2) rotate(10.5) scale(0.58)"><!-- bubble --><rect x="-11" y="-9" width="22" height="14" rx="4"/><path d="M-4 5 l-3 5 l7 -5"/><text y="1.5" text-anchor="middle" font-size="8" font-weight="700" fill="#ffffff" stroke="none" font-family="-apple-system, Helvetica, sans-serif">HI</text></g>
    <g transform="translate(294.3 355.5) rotate(-12.8) scale(0.82)"><!-- target --><circle r="10"/><circle r="5.5"/><circle r="1.4"/></g>
    <g transform="translate(338.4 355.9) rotate(9.7) scale(0.82)"><!-- bottle --><rect x="-5" y="-7" width="10" height="19" rx="3"/><path d="M-3 -7 v-4 h6 v4 M-5 1 h10"/></g>
    <g transform="translate(378.9 362.2) rotate(3.7) scale(0.82)"><!-- dumbbell --><path d="M-14 -7 v14 M-9 -10 v20 M9 -10 v20 M14 -7 v14 M-9 0 h18"/></g>
    <g transform="translate(427.9 365.9) rotate(0.8) scale(0.82)"><!-- banana --><path d="M-10 -4 q0 12 13 12 q5 0 7 -3 q-4 1 -8 0 q-10 -2 -9 -9 z"/><path d="M-10 -4 l-1.5 -3.5"/></g>
    <g transform="translate(473.7 366.4) rotate(2.9) scale(0.58)"><!-- bicep --><path d="M-11 11 q-1 -13 7 -15 l1 -5 q0 -2 2 -2 l4 1 q2 1 1 3 l-1 5 q8 3 7 13"/><circle cx="3" cy="-9" r="2.2"/></g>
    <g transform="translate(-6.3 366.4) rotate(2.9) scale(0.58)"><!-- bicep --><path d="M-11 11 q-1 -13 7 -15 l1 -5 q0 -2 2 -2 l4 1 q2 1 1 3 l-1 5 q8 3 7 13"/><circle cx="3" cy="-9" r="2.2"/></g>
    <g transform="translate(17.7 405.6) rotate(7.6) scale(0.82)"><!-- footprints --><ellipse cx="-6" cy="-2" rx="3.5" ry="6"/><circle cx="-6" cy="-10.5" r="1.7"/><ellipse cx="6" cy="7" rx="3.5" ry="6"/><circle cx="6" cy="-1.5" r="1.7"/></g>
    <g transform="translate(497.7 405.6) rotate(7.6) scale(0.82)"><!-- footprints --><ellipse cx="-6" cy="-2" rx="3.5" ry="6"/><circle cx="-6" cy="-10.5" r="1.7"/><ellipse cx="6" cy="7" rx="3.5" ry="6"/><circle cx="6" cy="-1.5" r="1.7"/></g>
    <g transform="translate(68.5 413.1) rotate(-1.6) scale(0.58)"><!-- towel --><path d="M-10 -12 h14 q4 0 4 4 v16 M-10 -12 v20 q0 4 4 4 h13"/></g>
    <g transform="translate(122.0 408.1) rotate(-11.2) scale(1)"><!-- fivek --><rect x="-11" y="-8" width="22" height="16" rx="4"/><text y="3.5" text-anchor="middle" font-size="9" font-weight="700" fill="#ffffff" stroke="none" font-family="-apple-system, Helvetica, sans-serif">5K</text></g>
    <g transform="translate(162.2 402.9) rotate(17.8) scale(0.58)"><!-- dowel --><path d="M-13 13 L13 -13 M-11 6 l5 5 M6 -11 l5 5"/></g>
    <g transform="translate(215.6 408.1) rotate(4.3) scale(0.82)"><!-- jumprope --><path d="M-12 -6 q-5 14 9 16 q14 2 16 -12"/><path d="M-12 -6 l-2 -6 M13 -2 l3 -6"/></g>
    <g transform="translate(266.4 403.2) rotate(17.2) scale(0.82)"><!-- lightning --><path d="M2 -11 l-9 12 h6 l-3 10 l10 -13 h-6 z"/></g>
    <g transform="translate(309.8 403.9) rotate(0.7) scale(0.58)"><!-- sun --><circle r="6"/><path d="M0 -13 v4 M0 9 v4 M-13 0 h4 M9 0 h4 M-9 -9 l2.5 2.5 M6.5 6.5 l2.5 2.5 M-9 9 l2.5 -2.5 M6.5 -6.5 l2.5 -2.5"/></g>
    <g transform="translate(359.2 407.8) rotate(-8.9) scale(0.58)"><!-- stopwatch --><circle cx="0" cy="2" r="11"/><path d="M0 2 v-6 M0 -13 v4 M-4 -13 h8 M9 -9 l3 -3"/></g>
    <g transform="translate(401.5 413.1) rotate(-4.9) scale(0.82)"><!-- kettlebell --><circle cy="4" r="9.5"/><path d="M-5.5 -3 a 7 7 0 0 1 11 0"/></g>
    <g transform="translate(452.5 408.1) rotate(-16.5) scale(0.82)"><!-- roller --><ellipse cx="-10" cy="0" rx="4" ry="8"/><path d="M-10 -8 h20 a4 8 0 0 1 0 16 h-20"/></g>
    <g transform="translate(-27.5 408.1) rotate(-16.5) scale(0.82)"><!-- roller --><ellipse cx="-10" cy="0" rx="4" ry="8"/><path d="M-10 -8 h20 a4 8 0 0 1 0 16 h-20"/></g>
    <g transform="translate(41.9 461.6) rotate(9.5) scale(0.82)"><!-- shoe --><path d="M-15 5 q-1 -9 6 -9 q5 0 8 5 q3 4 8 4 h7 q2 5 -3 5 h-24 q-2 0 -2 -5"/><path d="M-5 -2 l3 3 M-1 -4 l3 3"/></g>
    <g transform="translate(100.3 449.8) rotate(3.1) scale(0.82)"><!-- stressball --><circle r="8"/><path d="M-12 -3 q-2 3 0 6 M12 -3 q2 3 0 6"/></g>
    <g transform="translate(143.7 456.2) rotate(-0.9) scale(0.82)"><!-- mwf --><text y="3.5" text-anchor="middle" font-size="9" font-weight="700" fill="#ffffff" stroke="none" font-family="-apple-system, Helvetica, sans-serif">M/W/F</text></g>
    <g transform="translate(193.1 449.2) rotate(7.5) scale(0.82)"><!-- reps --><text y="4" text-anchor="middle" font-size="11" font-weight="700" fill="#ffffff" stroke="none" font-family="-apple-system, Helvetica, sans-serif">3x15</text></g>
    <g transform="translate(242.7 451.6) rotate(-4.7) scale(1)"><!-- trophy --><path d="M-7 -11 h14 v6 a7 7 0 0 1 -14 0 z"/><path d="M-7 -9 q-5 0 -4 5 q1 4 4 3 M7 -9 q5 0 4 5 q-1 4 -4 3"/><path d="M0 2 v5 M-5 11 h10 M-3 7.5 h6"/></g>
    <g transform="translate(294.0 452.9) rotate(4.3) scale(0.58)"><!-- check --><circle r="9"/><path d="M-4 0 l3 3 l6 -7"/></g>
    <g transform="translate(335.5 449.6) rotate(2.4) scale(0.58)"><!-- mat --><circle r="7"/><path d="M0 0 q4 0 4 -4"/><path d="M-13 10 h26"/></g>
    <g transform="translate(383.2 455.6) rotate(9.1) scale(0.82)"><!-- smiley --><circle r="9"/><path d="M-3.5 -3 v1.5 M3.5 -3 v1.5"/><path d="M-4 2.5 q4 4 8 0"/><path d="M11 -8 q3 4 0 6 q-3 -2 0 -6"/></g>
    <g transform="translate(435.0 457.3) rotate(16.0) scale(1)"><!-- sparkle --><path d="M0 -9 L2 -2 L9 0 L2 2 L0 9 L-2 2 L-9 0 L-2 -2 Z"/></g>
    <g transform="translate(479.7 449.1) rotate(14.8) scale(0.58)"><!-- zzz --><path d="M-9 -9 h8 l-8 8 h8"/><path d="M3 -2 h6 l-6 6 h6"/></g>
    <g transform="translate(-0.3 449.1) rotate(14.8) scale(0.58)"><!-- zzz --><path d="M-9 -9 h8 l-8 8 h8"/><path d="M3 -2 h6 l-6 6 h6"/></g>
    <g transform="translate(24.2 503.8) rotate(6.5) scale(1)"><!-- moon --><path d="M3 -11 a11 11 0 1 0 7 17 a9 9 0 0 1 -7 -17"/><path d="M11 -4 v6 M8 -1 h6"/></g>
    <g transform="translate(504.2 503.8) rotate(6.5) scale(1)"><!-- moon --><path d="M3 -11 a11 11 0 1 0 7 17 a9 9 0 0 1 -7 -17"/><path d="M11 -4 v6 M8 -1 h6"/></g>
    <g transform="translate(73.5 508.9) rotate(5.9) scale(0.82)"><!-- mug --><rect x="-10" y="-4" width="15" height="13" rx="3"/><path d="M5 -2 a4.5 4.5 0 0 1 0 9"/><path d="M-6 -9 q2 -3 0 -6 M1 -9 q2 -3 0 -6"/></g>
    <g transform="translate(126.7 510.5) rotate(11.2) scale(0.58)"><!-- bowl --><path d="M-12 -2 h24"/><path d="M-12 -2 a12 11 0 0 0 24 0"/><path d="M5 -14 l7 7"/><circle cx="3.5" cy="-15.5" r="2.5"/><path d="M17 -8 q3 4 0 8"/></g>
    <g transform="translate(172.4 499.2) rotate(-14.8) scale(0.58)"><!-- hourglass --><path d="M-6 -10 h12 M-6 10 h12 M-5 -10 q0 7 5 10 q-5 3 -5 10 M5 -10 q0 7 -5 10 q5 3 5 10"/></g>
    <g transform="translate(209.5 503.9) rotate(13.5) scale(0.58)"><!-- breath --><path d="M-10 -6 q4 -3 8 0 t8 0 M-10 0 q4 -3 8 0 t8 0 M-10 6 q4 -3 8 0 t8 0"/></g>
    <g transform="translate(267.9 501.6) rotate(12.3) scale(0.82)"><!-- sparkle --><path d="M0 -9 L2 -2 L9 0 L2 2 L0 9 L-2 2 L-9 0 L-2 -2 Z"/></g>
    <g transform="translate(316.1 503.1) rotate(3.5) scale(0.82)"><!-- roller --><ellipse cx="-10" cy="0" rx="4" ry="8"/><path d="M-10 -8 h20 a4 8 0 0 1 0 16 h-20"/></g>
    <g transform="translate(358.5 505.2) rotate(-11.9) scale(0.58)"><!-- check --><circle r="9"/><path d="M-4 0 l3 3 l6 -7"/></g>
    <g transform="translate(403.5 506.5) rotate(7.5) scale(0.58)"><!-- spiral --><path d="M1 1 q5 -1 4 -6 q-1 -7 -9 -6 q-10 1 -9 11 q1 12 14 11"/></g>
    <g transform="translate(456.7 505.8) rotate(14.3) scale(0.82)"><!-- bottle --><rect x="-5" y="-7" width="10" height="19" rx="3"/><path d="M-3 -7 v-4 h6 v4 M-5 1 h10"/></g>
    <g transform="translate(-23.3 505.8) rotate(14.3) scale(0.82)"><!-- bottle --><rect x="-5" y="-7" width="10" height="19" rx="3"/><path d="M-3 -7 v-4 h6 v4 M-5 1 h10"/></g>
    <g transform="translate(41.0 545.8) rotate(-14.6) scale(0.58)"><!-- lightning --><path d="M2 -11 l-9 12 h6 l-3 10 l10 -13 h-6 z"/></g>
    <g transform="translate(89.0 545.5) rotate(0.9) scale(0.58)"><!-- towel --><path d="M-10 -12 h14 q4 0 4 4 v16 M-10 -12 v20 q0 4 4 4 h13"/></g>
    <g transform="translate(147.4 553.9) rotate(-17.9) scale(1)"><!-- bowl --><path d="M-12 -2 h24"/><path d="M-12 -2 a12 11 0 0 0 24 0"/><path d="M5 -14 l7 7"/><circle cx="3.5" cy="-15.5" r="2.5"/><path d="M17 -8 q3 4 0 8"/></g>
    <g transform="translate(196.6 549.8) rotate(-10.9) scale(0.82)"><!-- sun --><circle r="6"/><path d="M0 -13 v4 M0 9 v4 M-13 0 h4 M9 0 h4 M-9 -9 l2.5 2.5 M6.5 6.5 l2.5 2.5 M-9 9 l2.5 -2.5 M6.5 -6.5 l2.5 -2.5"/></g>
    <g transform="translate(242.1 545.7) rotate(4.5) scale(0.58)"><!-- stressball --><circle r="8"/><path d="M-12 -3 q-2 3 0 6 M12 -3 q2 3 0 6"/></g>
    <g transform="translate(292.9 553.1) rotate(-3.1) scale(0.82)"><!-- reps --><text y="4" text-anchor="middle" font-size="11" font-weight="700" fill="#ffffff" stroke="none" font-family="-apple-system, Helvetica, sans-serif">3x15</text></g>
    <g transform="translate(334.8 553.3) rotate(-11.0) scale(0.82)"><!-- shoe --><path d="M-15 5 q-1 -9 6 -9 q5 0 8 5 q3 4 8 4 h7 q2 5 -3 5 h-24 q-2 0 -2 -5"/><path d="M-5 -2 l3 3 M-1 -4 l3 3"/></g>
    <g transform="translate(386.9 555.3) rotate(-7.9) scale(1)"><!-- mat --><circle r="7"/><path d="M0 0 q4 0 4 -4"/><path d="M-13 10 h26"/></g>
    <g transform="translate(438.2 551.0) rotate(3.5) scale(0.58)"><!-- kettlebell --><circle cy="4" r="9.5"/><path d="M-5.5 -3 a 7 7 0 0 1 11 0"/></g>
    <g transform="translate(2.3 558.7) rotate(14.1) scale(0.82)"><!-- banana --><path d="M-10 -4 q0 12 13 12 q5 0 7 -3 q-4 1 -8 0 q-10 -2 -9 -9 z"/><path d="M-10 -4 l-1.5 -3.5"/></g>
    <g transform="translate(482.3 558.7) rotate(14.1) scale(0.82)"><!-- banana --><path d="M-10 -4 q0 12 13 12 q5 0 7 -3 q-4 1 -8 0 q-10 -2 -9 -9 z"/><path d="M-10 -4 l-1.5 -3.5"/></g>
    <g transform="translate(21.8 605.7) rotate(0.3) scale(0.82)"><!-- confetti --><path d="M-8 -8 l3 3 M7 -10 l2 4 M-10 5 l4 2 M8 8 l-3 -3"/><circle cx="0" cy="-2" r="1.7"/><circle cx="10" cy="0" r="1.7"/><circle cx="-6" cy="-13" r="1.7"/></g>
    <g transform="translate(501.8 605.7) rotate(0.3) scale(0.82)"><!-- confetti --><path d="M-8 -8 l3 3 M7 -10 l2 4 M-10 5 l4 2 M8 8 l-3 -3"/><circle cx="0" cy="-2" r="1.7"/><circle cx="10" cy="0" r="1.7"/><circle cx="-6" cy="-13" r="1.7"/></g>
    <g transform="translate(68.3 595.1) rotate(-6.5) scale(0.58)"><!-- breath --><path d="M-10 -6 q4 -3 8 0 t8 0 M-10 0 q4 -3 8 0 t8 0 M-10 6 q4 -3 8 0 t8 0"/></g>
    <g transform="translate(120.1 606.7) rotate(-17.2) scale(0.58)"><!-- dumbbell --><path d="M-14 -7 v14 M-9 -10 v20 M9 -10 v20 M14 -7 v14 M-9 0 h18"/></g>
    <g transform="translate(169.4 606.8) rotate(-9.0) scale(0.82)"><!-- trophy --><path d="M-7 -11 h14 v6 a7 7 0 0 1 -14 0 z"/><path d="M-7 -9 q-5 0 -4 5 q1 4 4 3 M7 -9 q5 0 4 5 q-1 4 -4 3"/><path d="M0 2 v5 M-5 11 h10 M-3 7.5 h6"/></g>
    <g transform="translate(212.1 606.2) rotate(-7.0) scale(0.58)"><!-- target --><circle r="10"/><circle r="5.5"/><circle r="1.4"/></g>
    <g transform="translate(262.5 596.0) rotate(-7.6) scale(0.82)"><!-- hourglass --><path d="M-6 -10 h12 M-6 10 h12 M-5 -10 q0 7 5 10 q-5 3 -5 10 M5 -10 q0 7 -5 10 q5 3 5 10"/></g>
    <g transform="translate(313.8 597.4) rotate(0.4) scale(0.58)"><!-- jumprope --><path d="M-12 -6 q-5 14 9 16 q14 2 16 -12"/><path d="M-12 -6 l-2 -6 M13 -2 l3 -6"/></g>
    <g transform="translate(359.2 595.5) rotate(2.5) scale(0.82)"><!-- footprints --><ellipse cx="-6" cy="-2" rx="3.5" ry="6"/><circle cx="-6" cy="-10.5" r="1.7"/><ellipse cx="6" cy="7" rx="3.5" ry="6"/><circle cx="6" cy="-1.5" r="1.7"/></g>
    <g transform="translate(410.2 600.6) rotate(14.0) scale(0.58)"><!-- smiley --><circle r="9"/><path d="M-3.5 -3 v1.5 M3.5 -3 v1.5"/><path d="M-4 2.5 q4 4 8 0"/><path d="M11 -8 q3 4 0 6 q-3 -2 0 -6"/></g>
    <g transform="translate(461.0 599.2) rotate(4.7) scale(0.82)"><!-- bubble --><rect x="-11" y="-9" width="22" height="14" rx="4"/><path d="M-4 5 l-3 5 l7 -5"/><text y="1.5" text-anchor="middle" font-size="8" font-weight="700" fill="#ffffff" stroke="none" font-family="-apple-system, Helvetica, sans-serif">HI</text></g>
    <g transform="translate(-19.0 599.2) rotate(4.7) scale(0.82)"><!-- bubble --><rect x="-11" y="-9" width="22" height="14" rx="4"/><path d="M-4 5 l-3 5 l7 -5"/><text y="1.5" text-anchor="middle" font-size="8" font-weight="700" fill="#ffffff" stroke="none" font-family="-apple-system, Helvetica, sans-serif">HI</text></g>
    <g transform="translate(49.2 650.2) rotate(4.5) scale(0.82)"><!-- band --><circle cx="-14" cy="-7" r="3.5"/><circle cx="14" cy="7" r="3.5"/><path d="M-11 -5 C -4 1 4 -1 11 5"/></g>
    <g transform="translate(49.2 -21.8) rotate(4.5) scale(0.82)"><!-- band --><circle cx="-14" cy="-7" r="3.5"/><circle cx="14" cy="7" r="3.5"/><path d="M-11 -5 C -4 1 4 -1 11 5"/></g>
    <g transform="translate(91.4 641.1) rotate(7.6) scale(0.82)"><!-- heart --><path d="M0 9 C -11 2 -10 -8 -4 -8 C -1 -8 0 -5 0 -5 C 0 -5 1 -8 4 -8 C 10 -8 11 2 0 9 Z"/><path d="M-8 -1 h4 l2 -4 l3 7 l2 -3 h4"/></g>
    <g transform="translate(141.6 641.3) rotate(-13.5) scale(0.82)"><!-- mug --><rect x="-10" y="-4" width="15" height="13" rx="3"/><path d="M5 -2 a4.5 4.5 0 0 1 0 9"/><path d="M-6 -9 q2 -3 0 -6 M1 -9 q2 -3 0 -6"/></g>
    <g transform="translate(188.9 641.6) rotate(-1.5) scale(0.82)"><!-- mwf --><text y="3.5" text-anchor="middle" font-size="9" font-weight="700" fill="#ffffff" stroke="none" font-family="-apple-system, Helvetica, sans-serif">M/W/F</text></g>
    <g transform="translate(234.9 650.9) rotate(-10.3) scale(0.82)"><!-- bicep --><path d="M-11 11 q-1 -13 7 -15 l1 -5 q0 -2 2 -2 l4 1 q2 1 1 3 l-1 5 q8 3 7 13"/><circle cx="3" cy="-9" r="2.2"/></g>
    <g transform="translate(234.9 -21.1) rotate(-10.3) scale(0.82)"><!-- bicep --><path d="M-11 11 q-1 -13 7 -15 l1 -5 q0 -2 2 -2 l4 1 q2 1 1 3 l-1 5 q8 3 7 13"/><circle cx="3" cy="-9" r="2.2"/></g>
    <g transform="translate(289.7 645.8) rotate(-5.4) scale(0.82)"><!-- stopwatch --><circle cx="0" cy="2" r="11"/><path d="M0 2 v-6 M0 -13 v4 M-4 -13 h8 M9 -9 l3 -3"/></g>
    <g transform="translate(289.7 -26.2) rotate(-5.4) scale(0.82)"><!-- stopwatch --><circle cx="0" cy="2" r="11"/><path d="M0 2 v-6 M0 -13 v4 M-4 -13 h8 M9 -9 l3 -3"/></g>
    <g transform="translate(335.5 652.4) rotate(-15.0) scale(0.82)"><!-- moon --><path d="M3 -11 a11 11 0 1 0 7 17 a9 9 0 0 1 -7 -17"/><path d="M11 -4 v6 M8 -1 h6"/></g>
    <g transform="translate(335.5 -19.6) rotate(-15.0) scale(0.82)"><!-- moon --><path d="M3 -11 a11 11 0 1 0 7 17 a9 9 0 0 1 -7 -17"/><path d="M11 -4 v6 M8 -1 h6"/></g>
    <g transform="translate(381.8 653.4) rotate(12.9) scale(1)"><!-- zzz --><path d="M-9 -9 h8 l-8 8 h8"/><path d="M3 -2 h6 l-6 6 h6"/></g>
    <g transform="translate(381.8 -18.6) rotate(12.9) scale(1)"><!-- zzz --><path d="M-9 -9 h8 l-8 8 h8"/><path d="M3 -2 h6 l-6 6 h6"/></g>
    <g transform="translate(431.5 643.4) rotate(5.8) scale(0.58)"><!-- fivek --><rect x="-11" y="-8" width="22" height="16" rx="4"/><text y="3.5" text-anchor="middle" font-size="9" font-weight="700" fill="#ffffff" stroke="none" font-family="-apple-system, Helvetica, sans-serif">5K</text></g>
    <g transform="translate(431.5 -28.6) rotate(5.8) scale(0.58)"><!-- fivek --><rect x="-11" y="-8" width="22" height="16" rx="4"/><text y="3.5" text-anchor="middle" font-size="9" font-weight="700" fill="#ffffff" stroke="none" font-family="-apple-system, Helvetica, sans-serif">5K</text></g>
    <g transform="translate(3.5 654.2) rotate(-3.4) scale(0.82)"><!-- dowel --><path d="M-13 13 L13 -13 M-11 6 l5 5 M6 -11 l5 5"/></g>
    <g transform="translate(3.5 -17.8) rotate(-3.4) scale(0.82)"><!-- dowel --><path d="M-13 13 L13 -13 M-11 6 l5 5 M6 -11 l5 5"/></g>
    <g transform="translate(483.5 654.2) rotate(-3.4) scale(0.82)"><!-- dowel --><path d="M-13 13 L13 -13 M-11 6 l5 5 M6 -11 l5 5"/></g>
    <g transform="translate(483.5 -17.8) rotate(-3.4) scale(0.82)"><!-- dowel --><path d="M-13 13 L13 -13 M-11 6 l5 5 M6 -11 l5 5"/></g>
    <g transform="translate(477.3 3.2) rotate(2.6)"><circle r="3.5"/></g>
    <g transform="translate(477.3 675.2) rotate(2.6)"><circle r="3.5"/></g>
    <g transform="translate(-2.7 3.2) rotate(2.6)"><circle r="3.5"/></g>
    <g transform="translate(-2.7 675.2) rotate(2.6)"><circle r="3.5"/></g>
    <g transform="translate(50.9 668.8) rotate(1.2)"><path d="M-7 0 q2 -4 4 0 t4 0 t4 0"/></g>
    <g transform="translate(50.9 -3.2) rotate(1.2)"><path d="M-7 0 q2 -4 4 0 t4 0 t4 0"/></g>
    <g transform="translate(99.8 0.2) rotate(6.3)"><path d="M-7 0 q2 -4 4 0 t4 0 t4 0"/></g>
    <g transform="translate(99.8 672.2) rotate(6.3)"><path d="M-7 0 q2 -4 4 0 t4 0 t4 0"/></g>
    <g transform="translate(237.8 3.4) rotate(-4.0)"><path d="M-3 -3 l6 6 M3 -3 l-6 6"/></g>
    <g transform="translate(237.8 675.4) rotate(-4.0)"><path d="M-3 -3 l6 6 M3 -3 l-6 6"/></g>
    <g transform="translate(287.5 670.6) rotate(-4.6)"><path d="M0 -5 v10 M-5 0 h10"/></g>
    <g transform="translate(287.5 -1.4) rotate(-4.6)"><path d="M0 -5 v10 M-5 0 h10"/></g>
    <g transform="translate(339.0 3.1) rotate(-9.4)"><path d="M-7 0 q2 -4 4 0 t4 0 t4 0"/></g>
    <g transform="translate(339.0 675.1) rotate(-9.4)"><path d="M-7 0 q2 -4 4 0 t4 0 t4 0"/></g>
    <g transform="translate(384.1 1.8) rotate(2.6)"><path d="M0 -4 L1.5 0 L0 4 L-1.5 0 Z"/></g>
    <g transform="translate(384.1 673.8) rotate(2.6)"><path d="M0 -4 L1.5 0 L0 4 L-1.5 0 Z"/></g>
    <g transform="translate(479.4 44.3) rotate(-12.4)"><circle r="2" fill="#ffffff" stroke="none"/></g>
    <g transform="translate(-0.6 44.3) rotate(-12.4)"><circle r="2" fill="#ffffff" stroke="none"/></g>
    <g transform="translate(46.7 50.1) rotate(1.0)"><path d="M0 -4 L1.5 0 L0 4 L-1.5 0 Z"/></g>
    <g transform="translate(100.0 49.8) rotate(-2.2)"><path d="M0 -5 v10 M-5 0 h10"/></g>
    <g transform="translate(142.3 48.7) rotate(-8.5)"><circle r="2" fill="#ffffff" stroke="none"/></g>
    <g transform="translate(236.9 51.6) rotate(-16.4)"><path d="M0 2.5 C -3.5 0 -3 -3 -1 -3 C 0 -3 0 -2 0 -2 C 0 -2 0 -3 1 -3 C 3 -3 3.5 0 0 2.5 Z"/></g>
    <g transform="translate(284.5 49.0) rotate(13.5)"><circle r="3.5"/></g>
    <g transform="translate(387.8 47.6) rotate(-3.0)"><circle r="2" fill="#ffffff" stroke="none"/></g>
    <g transform="translate(428.4 47.1) rotate(-0.7)"><path d="M0 -4 L1.5 0 L0 4 L-1.5 0 Z"/></g>
    <g transform="translate(3.7 98.1) rotate(-9.7)"><circle r="2" fill="#ffffff" stroke="none"/></g>
    <g transform="translate(483.7 98.1) rotate(-9.7)"><circle r="2" fill="#ffffff" stroke="none"/></g>
    <g transform="translate(49.5 98.3) rotate(17.1)"><path d="M0 2.5 C -3.5 0 -3 -3 -1 -3 C 0 -3 0 -2 0 -2 C 0 -2 0 -3 1 -3 C 3 -3 3.5 0 0 2.5 Z"/></g>
    <g transform="translate(145.7 96.1) rotate(11.6)"><circle r="3.5"/></g>
    <g transform="translate(194.7 99.3) rotate(15.6)"><circle r="3.5"/></g>
    <g transform="translate(236.1 99.6) rotate(6.2)"><path d="M-3 -3 l6 6 M3 -3 l-6 6"/></g>
    <g transform="translate(289.1 97.5) rotate(10.6)"><circle r="2" fill="#ffffff" stroke="none"/></g>
    <g transform="translate(384.2 95.0) rotate(-15.2)"><path d="M0 -5 v10 M-5 0 h10"/></g>
    <g transform="translate(45.6 140.3) rotate(11.2)"><circle r="2" fill="#ffffff" stroke="none"/></g>
    <g transform="translate(147.6 147.6) rotate(9.7)"><circle r="3.5"/></g>
    <g transform="translate(190.3 140.6) rotate(5.0)"><path d="M-7 0 q2 -4 4 0 t4 0 t4 0"/></g>
    <g transform="translate(241.3 144.7) rotate(-15.7)"><circle r="1.4" fill="#ffffff" stroke="none"/><circle cx="6" cy="3" r="1.4" fill="#ffffff" stroke="none"/></g>
    <g transform="translate(289.0 143.3) rotate(11.1)"><circle r="3.5"/></g>
    <g transform="translate(332.8 147.5) rotate(-10.8)"><circle r="3.5"/></g>
    <g transform="translate(384.9 144.5) rotate(-2.6)"><path d="M0 -4 L1.5 0 L0 4 L-1.5 0 Z"/></g>
    <g transform="translate(431.4 145.8) rotate(-15.1)"><path d="M-7 0 q2 -4 4 0 t4 0 t4 0"/></g>
    <g transform="translate(1.2 195.0) rotate(12.8)"><path d="M0 -4 L1.5 0 L0 4 L-1.5 0 Z"/></g>
    <g transform="translate(481.2 195.0) rotate(12.8)"><path d="M0 -4 L1.5 0 L0 4 L-1.5 0 Z"/></g>
    <g transform="translate(45.2 191.7) rotate(5.5)"><path d="M0 -4 L1.5 0 L0 4 L-1.5 0 Z"/></g>
    <g transform="translate(99.8 195.4) rotate(-2.4)"><circle r="1.4" fill="#ffffff" stroke="none"/><circle cx="6" cy="3" r="1.4" fill="#ffffff" stroke="none"/></g>
    <g transform="translate(192.0 194.9) rotate(-8.2)"><path d="M0 -4 L1.5 0 L0 4 L-1.5 0 Z"/></g>
    <g transform="translate(238.8 193.8) rotate(-5.2)"><circle r="1.4" fill="#ffffff" stroke="none"/><circle cx="6" cy="3" r="1.4" fill="#ffffff" stroke="none"/></g>
    <g transform="translate(291.6 193.9) rotate(-1.4)"><path d="M0 -5 v10 M-5 0 h10"/></g>
    <g transform="translate(334.9 190.2) rotate(-10.5)"><circle r="2" fill="#ffffff" stroke="none"/></g>
    <g transform="translate(381.2 190.1) rotate(-16.6)"><path d="M0 2.5 C -3.5 0 -3 -3 -1 -3 C 0 -3 0 -2 0 -2 C 0 -2 0 -3 1 -3 C 3 -3 3.5 0 0 2.5 Z"/></g>
    <g transform="translate(433.9 192.4) rotate(-1.7)"><path d="M0 -5 v10 M-5 0 h10"/></g>
    <g transform="translate(0.7 238.4) rotate(10.1)"><path d="M0 2.5 C -3.5 0 -3 -3 -1 -3 C 0 -3 0 -2 0 -2 C 0 -2 0 -3 1 -3 C 3 -3 3.5 0 0 2.5 Z"/></g>
    <g transform="translate(480.7 238.4) rotate(10.1)"><path d="M0 2.5 C -3.5 0 -3 -3 -1 -3 C 0 -3 0 -2 0 -2 C 0 -2 0 -3 1 -3 C 3 -3 3.5 0 0 2.5 Z"/></g>
    <g transform="translate(49.3 239.9) rotate(-4.8)"><path d="M-7 0 q2 -4 4 0 t4 0 t4 0"/></g>
    <g transform="translate(143.3 239.3) rotate(-7.5)"><path d="M-3 -3 l6 6 M3 -3 l-6 6"/></g>
    <g transform="translate(189.5 241.2) rotate(10.5)"><path d="M-7 0 q2 -4 4 0 t4 0 t4 0"/></g>
    <g transform="translate(384.1 239.1) rotate(12.8)"><path d="M0 -5 v10 M-5 0 h10"/></g>
    <g transform="translate(432.8 236.2) rotate(-13.3)"><path d="M-3 -3 l6 6 M3 -3 l-6 6"/></g>
    <g transform="translate(477.9 285.4) rotate(-4.2)"><circle r="1.4" fill="#ffffff" stroke="none"/><circle cx="6" cy="3" r="1.4" fill="#ffffff" stroke="none"/></g>
    <g transform="translate(-2.1 285.4) rotate(-4.2)"><circle r="1.4" fill="#ffffff" stroke="none"/><circle cx="6" cy="3" r="1.4" fill="#ffffff" stroke="none"/></g>
    <g transform="translate(49.7 290.9) rotate(11.2)"><path d="M0 -5 v10 M-5 0 h10"/></g>
    <g transform="translate(142.0 284.5) rotate(8.0)"><path d="M0 2.5 C -3.5 0 -3 -3 -1 -3 C 0 -3 0 -2 0 -2 C 0 -2 0 -3 1 -3 C 3 -3 3.5 0 0 2.5 Z"/></g>
    <g transform="translate(238.0 288.9) rotate(4.9)"><path d="M0 -5 v10 M-5 0 h10"/></g>
    <g transform="translate(337.0 289.0) rotate(0.4)"><circle r="1.4" fill="#ffffff" stroke="none"/><circle cx="6" cy="3" r="1.4" fill="#ffffff" stroke="none"/></g>
    <g transform="translate(387.7 290.6) rotate(-14.9)"><circle r="1.4" fill="#ffffff" stroke="none"/><circle cx="6" cy="3" r="1.4" fill="#ffffff" stroke="none"/></g>
    <g transform="translate(434.7 285.9) rotate(-13.7)"><path d="M0 2.5 C -3.5 0 -3 -3 -1 -3 C 0 -3 0 -2 0 -2 C 0 -2 0 -3 1 -3 C 3 -3 3.5 0 0 2.5 Z"/></g>
    <g transform="translate(0.5 338.9) rotate(-3.3)"><path d="M0 -5 v10 M-5 0 h10"/></g>
    <g transform="translate(480.5 338.9) rotate(-3.3)"><path d="M0 -5 v10 M-5 0 h10"/></g>
    <g transform="translate(44.4 334.3) rotate(16.8)"><circle r="1.4" fill="#ffffff" stroke="none"/><circle cx="6" cy="3" r="1.4" fill="#ffffff" stroke="none"/></g>
    <g transform="translate(96.3 333.6) rotate(-14.9)"><circle r="1.4" fill="#ffffff" stroke="none"/><circle cx="6" cy="3" r="1.4" fill="#ffffff" stroke="none"/></g>
    <g transform="translate(142.3 340.0) rotate(5.8)"><circle r="3.5"/></g>
    <g transform="translate(189.7 333.8) rotate(14.2)"><circle r="1.4" fill="#ffffff" stroke="none"/><circle cx="6" cy="3" r="1.4" fill="#ffffff" stroke="none"/></g>
    <g transform="translate(239.1 338.0) rotate(-11.7)"><path d="M-7 0 q2 -4 4 0 t4 0 t4 0"/></g>
    <g transform="translate(288.7 334.8) rotate(-0.4)"><path d="M0 -4 L1.5 0 L0 4 L-1.5 0 Z"/></g>
    <g transform="translate(337.3 333.7) rotate(6.6)"><path d="M0 2.5 C -3.5 0 -3 -3 -1 -3 C 0 -3 0 -2 0 -2 C 0 -2 0 -3 1 -3 C 3 -3 3.5 0 0 2.5 Z"/></g>
    <g transform="translate(381.1 334.6) rotate(-11.7)"><path d="M0 2.5 C -3.5 0 -3 -3 -1 -3 C 0 -3 0 -2 0 -2 C 0 -2 0 -3 1 -3 C 3 -3 3.5 0 0 2.5 Z"/></g>
    <g transform="translate(432.2 338.0) rotate(-8.0)"><circle r="2" fill="#ffffff" stroke="none"/></g>
    <g transform="translate(476.6 386.3) rotate(-0.9)"><circle r="3.5"/></g>
    <g transform="translate(-3.4 386.3) rotate(-0.9)"><circle r="3.5"/></g>
    <g transform="translate(48.5 384.2) rotate(12.2)"><circle r="1.4" fill="#ffffff" stroke="none"/><circle cx="6" cy="3" r="1.4" fill="#ffffff" stroke="none"/></g>
    <g transform="translate(92.0 386.6) rotate(10.4)"><path d="M-7 0 q2 -4 4 0 t4 0 t4 0"/></g>
    <g transform="translate(142.2 381.9) rotate(11.0)"><path d="M0 -4 L1.5 0 L0 4 L-1.5 0 Z"/></g>
    <g transform="translate(190.3 385.0) rotate(8.3)"><path d="M-3 -3 l6 6 M3 -3 l-6 6"/></g>
    <g transform="translate(290.9 387.3) rotate(7.3)"><path d="M0 2.5 C -3.5 0 -3 -3 -1 -3 C 0 -3 0 -2 0 -2 C 0 -2 0 -3 1 -3 C 3 -3 3.5 0 0 2.5 Z"/></g>
    <g transform="translate(333.6 380.5) rotate(0.2)"><path d="M-7 0 q2 -4 4 0 t4 0 t4 0"/></g>
    <g transform="translate(387.8 387.7) rotate(8.0)"><circle r="1.4" fill="#ffffff" stroke="none"/><circle cx="6" cy="3" r="1.4" fill="#ffffff" stroke="none"/></g>
    <g transform="translate(434.4 380.6) rotate(-7.2)"><path d="M-7 0 q2 -4 4 0 t4 0 t4 0"/></g>
    <g transform="translate(4.0 434.1) rotate(8.9)"><path d="M0 2.5 C -3.5 0 -3 -3 -1 -3 C 0 -3 0 -2 0 -2 C 0 -2 0 -3 1 -3 C 3 -3 3.5 0 0 2.5 Z"/></g>
    <g transform="translate(484.0 434.1) rotate(8.9)"><path d="M0 2.5 C -3.5 0 -3 -3 -1 -3 C 0 -3 0 -2 0 -2 C 0 -2 0 -3 1 -3 C 3 -3 3.5 0 0 2.5 Z"/></g>
    <g transform="translate(195.2 431.0) rotate(2.0)"><circle r="2" fill="#ffffff" stroke="none"/></g>
    <g transform="translate(237.6 433.9) rotate(-10.4)"><path d="M-3 -3 l6 6 M3 -3 l-6 6"/></g>
    <g transform="translate(290.2 430.4) rotate(-17.3)"><circle r="3.5"/></g>
    <g transform="translate(339.5 435.8) rotate(-5.6)"><path d="M0 -5 v10 M-5 0 h10"/></g>
    <g transform="translate(429.8 430.7) rotate(-11.9)"><path d="M-7 0 q2 -4 4 0 t4 0 t4 0"/></g>
    <g transform="translate(50.4 482.7) rotate(7.0)"><path d="M-3 -3 l6 6 M3 -3 l-6 6"/></g>
    <g transform="translate(94.1 479.3) rotate(-9.8)"><circle r="1.4" fill="#ffffff" stroke="none"/><circle cx="6" cy="3" r="1.4" fill="#ffffff" stroke="none"/></g>
    <g transform="translate(144.5 482.6) rotate(-5.9)"><circle r="1.4" fill="#ffffff" stroke="none"/><circle cx="6" cy="3" r="1.4" fill="#ffffff" stroke="none"/></g>
    <g transform="translate(237.5 477.6) rotate(0.3)"><circle r="1.4" fill="#ffffff" stroke="none"/><circle cx="6" cy="3" r="1.4" fill="#ffffff" stroke="none"/></g>
    <g transform="translate(290.7 476.5) rotate(-16.6)"><path d="M-7 0 q2 -4 4 0 t4 0 t4 0"/></g>
    <g transform="translate(333.0 481.0) rotate(13.5)"><circle r="3.5"/></g>
    <g transform="translate(380.3 477.6) rotate(-9.3)"><circle r="1.4" fill="#ffffff" stroke="none"/><circle cx="6" cy="3" r="1.4" fill="#ffffff" stroke="none"/></g>
    <g transform="translate(480.0 526.7) rotate(0.2)"><circle r="3.5"/></g>
    <g transform="translate(-0.0 526.7) rotate(0.2)"><circle r="3.5"/></g>
    <g transform="translate(49.5 527.8) rotate(-0.7)"><circle r="1.4" fill="#ffffff" stroke="none"/><circle cx="6" cy="3" r="1.4" fill="#ffffff" stroke="none"/></g>
    <g transform="translate(92.5 531.2) rotate(0.4)"><path d="M-3 -3 l6 6 M3 -3 l-6 6"/></g>
    <g transform="translate(141.2 528.4) rotate(17.1)"><path d="M0 -5 v10 M-5 0 h10"/></g>
    <g transform="translate(189.8 527.8) rotate(-3.5)"><path d="M0 -5 v10 M-5 0 h10"/></g>
    <g transform="translate(239.6 524.6) rotate(-0.2)"><path d="M-3 -3 l6 6 M3 -3 l-6 6"/></g>
    <g transform="translate(284.2 526.3) rotate(-9.9)"><path d="M0 -4 L1.5 0 L0 4 L-1.5 0 Z"/></g>
    <g transform="translate(431.3 529.1) rotate(-10.1)"><circle r="1.4" fill="#ffffff" stroke="none"/><circle cx="6" cy="3" r="1.4" fill="#ffffff" stroke="none"/></g>
    <g transform="translate(1.6 578.6) rotate(0.5)"><path d="M-7 0 q2 -4 4 0 t4 0 t4 0"/></g>
    <g transform="translate(481.6 578.6) rotate(0.5)"><path d="M-7 0 q2 -4 4 0 t4 0 t4 0"/></g>
    <g transform="translate(49.3 576.6) rotate(-8.9)"><path d="M0 -4 L1.5 0 L0 4 L-1.5 0 Z"/></g>
    <g transform="translate(95.0 575.7) rotate(-13.1)"><path d="M0 -4 L1.5 0 L0 4 L-1.5 0 Z"/></g>
    <g transform="translate(141.9 574.9) rotate(-6.5)"><circle r="3.5"/></g>
    <g transform="translate(188.3 575.5) rotate(11.7)"><path d="M-3 -3 l6 6 M3 -3 l-6 6"/></g>
    <g transform="translate(236.7 576.5) rotate(-13.4)"><circle r="3.5"/></g>
    <g transform="translate(336.5 575.3) rotate(9.7)"><path d="M-7 0 q2 -4 4 0 t4 0 t4 0"/></g>
    <g transform="translate(386.6 577.0) rotate(-4.0)"><circle r="3.5"/></g>
    <g transform="translate(435.4 579.5) rotate(9.7)"><path d="M0 2.5 C -3.5 0 -3 -3 -1 -3 C 0 -3 0 -2 0 -2 C 0 -2 0 -3 1 -3 C 3 -3 3.5 0 0 2.5 Z"/></g>
    <g transform="translate(477.5 621.5) rotate(-13.6)"><circle r="1.4" fill="#ffffff" stroke="none"/><circle cx="6" cy="3" r="1.4" fill="#ffffff" stroke="none"/></g>
    <g transform="translate(-2.5 621.5) rotate(-13.6)"><circle r="1.4" fill="#ffffff" stroke="none"/><circle cx="6" cy="3" r="1.4" fill="#ffffff" stroke="none"/></g>
    <g transform="translate(47.9 624.4) rotate(-7.6)"><path d="M-7 0 q2 -4 4 0 t4 0 t4 0"/></g>
    <g transform="translate(143.3 628.0) rotate(13.5)"><path d="M-3 -3 l6 6 M3 -3 l-6 6"/></g>
    <g transform="translate(192.2 627.4) rotate(-9.6)"><circle r="2" fill="#ffffff" stroke="none"/></g>
    <g transform="translate(239.4 622.2) rotate(12.1)"><path d="M0 2.5 C -3.5 0 -3 -3 -1 -3 C 0 -3 0 -2 0 -2 C 0 -2 0 -3 1 -3 C 3 -3 3.5 0 0 2.5 Z"/></g>
    <g transform="translate(284.4 627.5) rotate(-5.9)"><path d="M-7 0 q2 -4 4 0 t4 0 t4 0"/></g>
    <g transform="translate(335.9 626.4) rotate(8.3)"><path d="M0 2.5 C -3.5 0 -3 -3 -1 -3 C 0 -3 0 -2 0 -2 C 0 -2 0 -3 1 -3 C 3 -3 3.5 0 0 2.5 Z"/></g>
    <g transform="translate(381.4 620.8) rotate(-0.3)"><circle r="3.5"/></g>
    <g transform="translate(432.4 624.8) rotate(15.4)"><path d="M-3 -3 l6 6 M3 -3 l-6 6"/></g>
  </g>
</svg>
