<svg xmlns="http://www.w3.org/2000/svg" viewBox="0 0 504 728" width="504" height="728">
  <!-- Generated by scripts/generate-doodles.mjs — edit that, not this. -->
  <g fill="none" stroke="#828282" stroke-width="2.4" stroke-linecap="round" stroke-linejoin="round" opacity="0.16">
    <g transform="translate(27.5 31.5) rotate(6.1) scale(0.95)"><!-- stressball --><circle r="8"/><path d="M-12 -3 q-2 3 0 6 M12 -3 q2 3 0 6"/></g>
    <g transform="translate(531.5 31.5) rotate(6.1) scale(0.95)"><!-- stressball --><circle r="8"/><path d="M-12 -3 q-2 3 0 6 M12 -3 q2 3 0 6"/></g>
    <g transform="translate(82.2 27.5) rotate(-16.7) scale(0.7)"><!-- lightning --><path d="M2 -11 l-9 12 h6 l-3 10 l10 -13 h-6 z"/></g>
    <g transform="translate(82.2 755.5) rotate(-16.7) scale(0.7)"><!-- lightning --><path d="M2 -11 l-9 12 h6 l-3 10 l10 -13 h-6 z"/></g>
    <g transform="translate(140.6 29.0) rotate(-9.2) scale(1.2)"><!-- confetti --><path d="M-8 -8 l3 3 M7 -10 l2 4 M-10 5 l4 2 M8 8 l-3 -3"/><circle cx="0" cy="-2" r="1.7"/><circle cx="10" cy="0" r="1.7"/><circle cx="-6" cy="-13" r="1.7"/></g>
    <g transform="translate(140.6 757.0) rotate(-9.2) scale(1.2)"><!-- confetti --><path d="M-8 -8 l3 3 M7 -10 l2 4 M-10 5 l4 2 M8 8 l-3 -3"/><circle cx="0" cy="-2" r="1.7"/><circle cx="10" cy="0" r="1.7"/><circle cx="-6" cy="-13" r="1.7"/></g>
    <g transform="translate(193.1 26.0) rotate(8.6) scale(0.95)"><!-- stopwatch --><circle cx="0" cy="2" r="11"/><path d="M0 2 v-6 M0 -13 v4 M-4 -13 h8 M9 -9 l3 -3"/></g>
    <g transform="translate(193.1 754.0) rotate(8.6) scale(0.95)"><!-- stopwatch --><circle cx="0" cy="2" r="11"/><path d="M0 2 v-6 M0 -13 v4 M-4 -13 h8 M9 -9 l3 -3"/></g>
    <g transform="translate(252.1 25.0) rotate(-7.8) scale(0.7)"><!-- moon --><path d="M3 -11 a11 11 0 1 0 7 17 a9 9 0 0 1 -7 -17"/><path d="M11 -4 v6 M8 -1 h6"/></g>
    <g transform="translate(252.1 753.0) rotate(-7.8) scale(0.7)"><!-- moon --><path d="M3 -11 a11 11 0 1 0 7 17 a9 9 0 0 1 -7 -17"/><path d="M11 -4 v6 M8 -1 h6"/></g>
    <g transform="translate(303.7 29.6) rotate(6.5) scale(0.95)"><!-- towel --><path d="M-10 -12 h14 q4 0 4 4 v16 M-10 -12 v20 q0 4 4 4 h13"/></g>
    <g transform="translate(303.7 757.6) rotate(6.5) scale(0.95)"><!-- towel --><path d="M-10 -12 h14 q4 0 4 4 v16 M-10 -12 v20 q0 4 4 4 h13"/></g>
    <g transform="translate(368.3 23.9) rotate(16.0) scale(0.95)"><!-- hourglass --><path d="M-6 -10 h12 M-6 10 h12 M-5 -10 q0 7 5 10 q-5 3 -5 10 M5 -10 q0 7 -5 10 q5 3 5 10"/></g>
    <g transform="translate(368.3 751.9) rotate(16.0) scale(0.95)"><!-- hourglass --><path d="M-6 -10 h12 M-6 10 h12 M-5 -10 q0 7 5 10 q-5 3 -5 10 M5 -10 q0 7 -5 10 q5 3 5 10"/></g>
    <g transform="translate(424.4 24.4) rotate(-14.0) scale(0.95)"><!-- mug --><rect x="-10" y="-4" width="15" height="13" rx="3"/><path d="M5 -2 a4.5 4.5 0 0 1 0 9"/><path d="M-6 -9 q2 -3 0 -6 M1 -9 q2 -3 0 -6"/></g>
    <g transform="translate(424.4 752.4) rotate(-14.0) scale(0.95)"><!-- mug --><rect x="-10" y="-4" width="15" height="13" rx="3"/><path d="M5 -2 a4.5 4.5 0 0 1 0 9"/><path d="M-6 -9 q2 -3 0 -6 M1 -9 q2 -3 0 -6"/></g>
    <g transform="translate(474.6 27.8) rotate(4.0) scale(1.2)"><!-- zzz --><path d="M-9 -9 h8 l-8 8 h8"/><path d="M3 -2 h6 l-6 6 h6"/></g>
    <g transform="translate(474.6 755.8) rotate(4.0) scale(1.2)"><!-- zzz --><path d="M-9 -9 h8 l-8 8 h8"/><path d="M3 -2 h6 l-6 6 h6"/></g>
    <g transform="translate(-29.4 27.8) rotate(4.0) scale(1.2)"><!-- zzz --><path d="M-9 -9 h8 l-8 8 h8"/><path d="M3 -2 h6 l-6 6 h6"/></g>
    <g transform="translate(-29.4 755.8) rotate(4.0) scale(1.2)"><!-- zzz --><path d="M-9 -9 h8 l-8 8 h8"/><path d="M3 -2 h6 l-6 6 h6"/></g>
    <g transform="translate(51.8 86.2) rotate(15.7) scale(0.7)"><!-- bowl --><path d="M-12 -2 h24"/><path d="M-12 -2 a12 11 0 0 0 24 0"/><path d="M5 -14 l7 7"/><circle cx="3.5" cy="-15.5" r="2.5"/><path d="M17 -8 q3 4 0 8"/></g>
    <g transform="translate(114.1 80.8) rotate(0.7) scale(0.95)"><!-- spiral --><path d="M1 1 q5 -1 4 -6 q-1 -7 -9 -6 q-10 1 -9 11 q1 12 14 11"/></g>
    <g transform="translate(164.2 89.0) rotate(2.3) scale(0.7)"><!-- footprints --><ellipse cx="-6" cy="-2" rx="3.5" ry="6"/><circle cx="-6" cy="-10.5" r="1.7"/><ellipse cx="6" cy="7" rx="3.5" ry="6"/><circle cx="6" cy="-1.5" r="1.7"/></g>
    <g transform="translate(223.3 84.8) rotate(-5.9) scale(0.7)"><!-- jumprope --><path d="M-12 -6 q-5 14 9 16 q14 2 16 -12"/><path d="M-12 -6 l-2 -6 M13 -2 l3 -6"/></g>
    <g transform="translate(278.2 86.3) rotate(-7.4) scale(0.95)"><!-- target --><circle r="10"/><circle r="5.5"/><circle r="1.4"/></g>
    <g transform="translate(339.4 86.0) rotate(17.8) scale(0.95)"><!-- check --><circle r="9"/><path d="M-4 0 l3 3 l6 -7"/></g>
    <g transform="translate(391.3 84.5) rotate(-7.3) scale(0.7)"><!-- dumbbell --><path d="M-14 -7 v14 M-9 -10 v20 M9 -10 v20 M14 -7 v14 M-9 0 h18"/></g>
    <g transform="translate(450.0 82.1) rotate(10.3) scale(1.2)"><!-- bottle --><rect x="-5" y="-7" width="10" height="19" rx="3"/><path d="M-3 -7 v-4 h6 v4 M-5 1 h10"/></g>
    <g transform="translate(499.9 83.8) rotate(11.6) scale(0.7)"><!-- sun --><circle r="6"/><path d="M0 -13 v4 M0 9 v4 M-13 0 h4 M9 0 h4 M-9 -9 l2.5 2.5 M6.5 6.5 l2.5 2.5 M-9 9 l2.5 -2.5 M6.5 -6.5 l2.5 -2.5"/></g>
    <g transform="translate(-4.1 83.8) rotate(11.6) scale(0.7)"><!-- sun --><circle r="6"/><path d="M0 -13 v4 M0 9 v4 M-13 0 h4 M9 0 h4 M-9 -9 l2.5 2.5 M6.5 6.5 l2.5 2.5 M-9 9 l2.5 -2.5 M6.5 -6.5 l2.5 -2.5"/></g>
    <g transform="translate(32.7 136.8) rotate(7.5) scale(1.2)"><!-- roller --><ellipse cx="-10" cy="0" rx="4" ry="8"/><path d="M-10 -8 h20 a4 8 0 0 1 0 16 h-20"/></g>
    <g transform="translate(81.2 139.1) rotate(-12.1) scale(0.95)"><!-- heart --><path d="M0 9 C -11 2 -10 -8 -4 -8 C -1 -8 0 -5 0 -5 C 0 -5 1 -8 4 -8 C 10 -8 11 2 0 9 Z"/><path d="M-8 -1 h4 l2 -4 l3 7 l2 -3 h4"/></g>
    <g transform="translate(138.4 137.1) rotate(4.6) scale(0.95)"><!-- band --><circle cx="-14" cy="-7" r="3.5"/><circle cx="14" cy="7" r="3.5"/><path d="M-11 -5 C -4 1 4 -1 11 5"/></g>
    <g transform="translate(194.3 142.9) rotate(-3.9) scale(0.7)"><!-- banana --><path d="M-10 -4 q0 12 13 12 q5 0 7 -3 q-4 1 -8 0 q-10 -2 -9 -9 z"/><path d="M-10 -4 l-1.5 -3.5"/></g>
    <g transform="translate(255.6 138.7) rotate(-17.7) scale(1.2)"><!-- kettlebell --><circle cy="4" r="9.5"/><path d="M-5.5 -3 a 7 7 0 0 1 11 0"/></g>
    <g transform="translate(309.4 143.8) rotate(14.7) scale(0.7)"><!-- breath --><path d="M-10 -6 q4 -3 8 0 t8 0 M-10 0 q4 -3 8 0 t8 0 M-10 6 q4 -3 8 0 t8 0"/></g>
    <g transform="translate(365.0 139.9) rotate(-11.4) scale(0.95)"><!-- bicep --><path d="M-11 11 q-1 -13 7 -15 l1 -5 q0 -2 2 -2 l4 1 q2 1 1 3 l-1 5 q8 3 7 13"/><circle cx="3" cy="-9" r="2.2"/></g>
    <g transform="translate(422.1 142.1) rotate(-7.5) scale(1.2)"><!-- trophy --><path d="M-7 -11 h14 v6 a7 7 0 0 1 -14 0 z"/><path d="M-7 -9 q-5 0 -4 5 q1 4 4 3 M7 -9 q5 0 4 5 q-1 4 -4 3"/><path d="M0 2 v5 M-5 11 h10 M-3 7.5 h6"/></g>
    <g transform="translate(474.4 135.3) rotate(-10.0) scale(0.95)"><!-- mat --><circle r="7"/><path d="M0 0 q4 0 4 -4"/><path d="M-13 10 h26"/></g>
    <g transform="translate(-29.6 135.3) rotate(-10.0) scale(0.95)"><!-- mat --><circle r="7"/><path d="M0 0 q4 0 4 -4"/><path d="M-13 10 h26"/></g>
    <g transform="translate(56.7 200.9) rotate(-12.1) scale(0.7)"><!-- sparkle --><path d="M0 -9 L2 -2 L9 0 L2 2 L0 9 L-2 2 L-9 0 L-2 -2 Z"/></g>
    <g transform="translate(112.6 193.9) rotate(-3.8) scale(1.2)"><!-- dowel --><path d="M-13 13 L13 -13 M-11 6 l5 5 M6 -11 l5 5"/></g>
    <g transform="translate(167.2 197.9) rotate(-3.7) scale(0.95)"><!-- shoe --><path d="M-15 5 q-1 -9 6 -9 q5 0 8 5 q3 4 8 4 h7 q2 5 -3 5 h-24 q-2 0 -2 -5"/><path d="M-5 -2 l3 3 M-1 -4 l3 3"/></g>
    <g transform="translate(228.0 194.3) rotate(-0.2) scale(0.95)"><!-- sun --><circle r="6"/><path d="M0 -13 v4 M0 9 v4 M-13 0 h4 M9 0 h4 M-9 -9 l2.5 2.5 M6.5 6.5 l2.5 2.5 M-9 9 l2.5 -2.5 M6.5 -6.5 l2.5 -2.5"/></g>
    <g transform="translate(281.2 199.1) rotate(-10.5) scale(1.2)"><!-- trophy --><path d="M-7 -11 h14 v6 a7 7 0 0 1 -14 0 z"/><path d="M-7 -9 q-5 0 -4 5 q1 4 4 3 M7 -9 q5 0 4 5 q-1 4 -4 3"/><path d="M0 2 v5 M-5 11 h10 M-3 7.5 h6"/></g>
    <g transform="translate(336.5 200.8) rotate(-0.3) scale(0.95)"><!-- bicep --><path d="M-11 11 q-1 -13 7 -15 l1 -5 q0 -2 2 -2 l4 1 q2 1 1 3 l-1 5 q8 3 7 13"/><circle cx="3" cy="-9" r="2.2"/></g>
    <g transform="translate(395.4 198.4) rotate(-16.1) scale(0.7)"><!-- footprints --><ellipse cx="-6" cy="-2" rx="3.5" ry="6"/><circle cx="-6" cy="-10.5" r="1.7"/><ellipse cx="6" cy="7" rx="3.5" ry="6"/><circle cx="6" cy="-1.5" r="1.7"/></g>
    <g transform="translate(444.7 196.1) rotate(6.4) scale(1.2)"><!-- towel --><path d="M-10 -12 h14 q4 0 4 4 v16 M-10 -12 v20 q0 4 4 4 h13"/></g>
    <g transform="translate(4.9 199.2) rotate(4.7) scale(0.7)"><!-- check --><circle r="9"/><path d="M-4 0 l3 3 l6 -7"/></g>
    <g transform="translate(508.9 199.2) rotate(4.7) scale(0.7)"><!-- check --><circle r="9"/><path d="M-4 0 l3 3 l6 -7"/></g>
    <g transform="translate(31.5 253.0) rotate(-5.4) scale(0.7)"><!-- mug --><rect x="-10" y="-4" width="15" height="13" rx="3"/><path d="M5 -2 a4.5 4.5 0 0 1 0 9"/><path d="M-6 -9 q2 -3 0 -6 M1 -9 q2 -3 0 -6"/></g>
    <g transform="translate(87.8 253.8) rotate(-5.4) scale(0.95)"><!-- kettlebell --><circle cy="4" r="9.5"/><path d="M-5.5 -3 a 7 7 0 0 1 11 0"/></g>
    <g transform="translate(141.3 250.3) rotate(12.4) scale(0.7)"><!-- bottle --><rect x="-5" y="-7" width="10" height="19" rx="3"/><path d="M-3 -7 v-4 h6 v4 M-5 1 h10"/></g>
    <g transform="translate(194.7 247.2) rotate(-14.9) scale(1.2)"><!-- roller --><ellipse cx="-10" cy="0" rx="4" ry="8"/><path d="M-10 -8 h20 a4 8 0 0 1 0 16 h-20"/></g>
    <g transform="translate(254.3 256.6) rotate(13.7) scale(0.95)"><!-- hourglass --><path d="M-6 -10 h12 M-6 10 h12 M-5 -10 q0 7 5 10 q-5 3 -5 10 M5 -10 q0 7 -5 10 q5 3 5 10"/></g>
    <g transform="translate(310.1 248.5) rotate(-8.2) scale(0.95)"><!-- zzz --><path d="M-9 -9 h8 l-8 8 h8"/><path d="M3 -2 h6 l-6 6 h6"/></g>
    <g transform="translate(359.5 249.9) rotate(-2.1) scale(1.2)"><!-- banana --><path d="M-10 -4 q0 12 13 12 q5 0 7 -3 q-4 1 -8 0 q-10 -2 -9 -9 z"/><path d="M-10 -4 l-1.5 -3.5"/></g>
    <g transform="translate(422.2 254.9) rotate(10.3) scale(0.95)"><!-- spiral --><path d="M1 1 q5 -1 4 -6 q-1 -7 -9 -6 q-10 1 -9 11 q1 12 14 11"/></g>
    <g transform="translate(477.7 252.2) rotate(-2.0) scale(1.2)"><!-- lightning --><path d="M2 -11 l-9 12 h6 l-3 10 l10 -13 h-6 z"/></g>
    <g transform="translate(-26.3 252.2) rotate(-2.0) scale(1.2)"><!-- lightning --><path d="M2 -11 l-9 12 h6 l-3 10 l10 -13 h-6 z"/></g>
    <g transform="translate(55.6 307.3) rotate(-6.1) scale(0.95)"><!-- dumbbell --><path d="M-14 -7 v14 M-9 -10 v20 M9 -10 v20 M14 -7 v14 M-9 0 h18"/></g>
    <g transform="translate(108.5 308.0) rotate(-8.4) scale(0.95)"><!-- breath --><path d="M-10 -6 q4 -3 8 0 t8 0 M-10 0 q4 -3 8 0 t8 0 M-10 6 q4 -3 8 0 t8 0"/></g>
    <g transform="translate(168.5 309.5) rotate(-2.3) scale(0.95)"><!-- bowl --><path d="M-12 -2 h24"/><path d="M-12 -2 a12 11 0 0 0 24 0"/><path d="M5 -14 l7 7"/><circle cx="3.5" cy="-15.5" r="2.5"/><path d="M17 -8 q3 4 0 8"/></g>
    <g transform="translate(219.0 304.5) rotate(16.0) scale(1.2)"><!-- shoe --><path d="M-15 5 q-1 -9 6 -9 q5 0 8 5 q3 4 8 4 h7 q2 5 -3 5 h-24 q-2 0 -2 -5"/><path d="M-5 -2 l3 3 M-1 -4 l3 3"/></g>
    <g transform="translate(283.7 307.3) rotate(0.1) scale(1.2)"><!-- stressball --><circle r="8"/><path d="M-12 -3 q-2 3 0 6 M12 -3 q2 3 0 6"/></g>
    <g transform="translate(339.2 303.6) rotate(-4.7) scale(1.2)"><!-- heart --><path d="M0 9 C -11 2 -10 -8 -4 -8 C -1 -8 0 -5 0 -5 C 0 -5 1 -8 4 -8 C 10 -8 11 2 0 9 Z"/><path d="M-8 -1 h4 l2 -4 l3 7 l2 -3 h4"/></g>
    <g transform="translate(394.0 308.6) rotate(-14.6) scale(0.95)"><!-- stopwatch --><circle cx="0" cy="2" r="11"/><path d="M0 2 v-6 M0 -13 v4 M-4 -13 h8 M9 -9 l3 -3"/></g>
    <g transform="translate(450.5 309.6) rotate(10.7) scale(0.7)"><!-- jumprope --><path d="M-12 -6 q-5 14 9 16 q14 2 16 -12"/><path d="M-12 -6 l-2 -6 M13 -2 l3 -6"/></g>
    <g transform="translate(3.0 308.3) rotate(-11.6) scale(0.95)"><!-- target --><circle r="10"/><circle r="5.5"/><circle r="1.4"/></g>
    <g transform="translate(507.0 308.3) rotate(-11.6) scale(0.95)"><!-- target --><circle r="10"/><circle r="5.5"/><circle r="1.4"/></g>
    <g transform="translate(24.0 359.6) rotate(-8.5) scale(1.2)"><!-- sparkle --><path d="M0 -9 L2 -2 L9 0 L2 2 L0 9 L-2 2 L-9 0 L-2 -2 Z"/></g>
    <g transform="translate(528.0 359.6) rotate(-8.5) scale(1.2)"><!-- sparkle --><path d="M0 -9 L2 -2 L9 0 L2 2 L0 9 L-2 2 L-9 0 L-2 -2 Z"/></g>
    <g transform="translate(85.7 364.6) rotate(17.2) scale(0.95)"><!-- moon --><path d="M3 -11 a11 11 0 1 0 7 17 a9 9 0 0 1 -7 -17"/><path d="M11 -4 v6 M8 -1 h6"/></g>
    <g transform="translate(139.0 362.4) rotate(-7.8) scale(1.2)"><!-- band --><circle cx="-14" cy="-7" r="3.5"/><circle cx="14" cy="7" r="3.5"/><path d="M-11 -5 C -4 1 4 -1 11 5"/></g>
    <g transform="translate(196.4 361.0) rotate(16.0) scale(0.7)"><!-- mat --><circle r="7"/><path d="M0 0 q4 0 4 -4"/><path d="M-13 10 h26"/></g>
    <g transform="translate(249.7 364.2) rotate(13.0) scale(0.7)"><!-- dowel --><path d="M-13 13 L13 -13 M-11 6 l5 5 M6 -11 l5 5"/></g>
    <g transform="translate(309.8 364.7) rotate(11.2) scale(0.7)"><!-- confetti --><path d="M-8 -8 l3 3 M7 -10 l2 4 M-10 5 l4 2 M8 8 l-3 -3"/><circle cx="0" cy="-2" r="1.7"/><circle cx="10" cy="0" r="1.7"/><circle cx="-6" cy="-13" r="1.7"/></g>
    <g transform="translate(363.9 366.5) rotate(1.8) scale(0.95)"><!-- dumbbell --><path d="M-14 -7 v14 M-9 -10 v20 M9 -10 v20 M14 -7 v14 M-9 0 h18"/></g>
    <g transform="translate(416.9 367.5) rotate(14.5) scale(0.7)"><!-- stopwatch --><circle cx="0" cy="2" r="11"/><path d="M0 2 v-6 M0 -13 v4 M-4 -13 h8 M9 -9 l3 -3"/></g>
    <g transform="translate(475.7 359.7) rotate(-0.0) scale(0.95)"><!-- heart --><path d="M0 9 C -11 2 -10 -8 -4 -8 C -1 -8 0 -5 0 -5 C 0 -5 1 -8 4 -8 C 10 -8 11 2 0 9 Z"/><path d="M-8 -1 h4 l2 -4 l3 7 l2 -3 h4"/></g>
    <g transform="translate(-28.3 359.7) rotate(-0.0) scale(0.95)"><!-- heart --><path d="M0 9 C -11 2 -10 -8 -4 -8 C -1 -8 0 -5 0 -5 C 0 -5 1 -8 4 -8 C 10 -8 11 2 0 9 Z"/><path d="M-8 -1 h4 l2 -4 l3 7 l2 -3 h4"/></g>
    <g transform="translate(57.8 419.2) rotate(-2.1) scale(0.7)"><!-- breath --><path d="M-10 -6 q4 -3 8 0 t8 0 M-10 0 q4 -3 8 0 t8 0 M-10 6 q4 -3 8 0 t8 0"/></g>
    <g transform="translate(114.2 420.2) rotate(-16.4) scale(0.95)"><!-- moon --><path d="M3 -11 a11 11 0 1 0 7 17 a9 9 0 0 1 -7 -17"/><path d="M11 -4 v6 M8 -1 h6"/></g>
    <g transform="translate(164.0 416.2) rotate(-4.5) scale(1.2)"><!-- bicep --><path d="M-11 11 q-1 -13 7 -15 l1 -5 q0 -2 2 -2 l4 1 q2 1 1 3 l-1 5 q8 3 7 13"/><circle cx="3" cy="-9" r="2.2"/></g>
    <g transform="translate(227.4 421.8) rotate(-14.9) scale(0.7)"><!-- sun --><circle r="6"/><path d="M0 -13 v4 M0 9 v4 M-13 0 h4 M9 0 h4 M-9 -9 l2.5 2.5 M6.5 6.5 l2.5 2.5 M-9 9 l2.5 -2.5 M6.5 -6.5 l2.5 -2.5"/></g>
    <g transform="translate(277.7 422.0) rotate(-8.3) scale(1.2)"><!-- bowl --><path d="M-12 -2 h24"/><path d="M-12 -2 a12 11 0 0 0 24 0"/><path d="M5 -14 l7 7"/><circle cx="3.5" cy="-15.5" r="2.5"/><path d="M17 -8 q3 4 0 8"/></g>
    <g transform="translate(337.3 424.1) rotate(14.0) scale(0.7)"><!-- mug --><rect x="-10" y="-4" width="15" height="13" rx="3"/><path d="M5 -2 a4.5 4.5 0 0 1 0 9"/><path d="M-6 -9 q2 -3 0 -6 M1 -9 q2 -3 0 -6"/></g>
    <g transform="translate(388.0 421.3) rotate(-9.4) scale(0.95)"><!-- check --><circle r="9"/><path d="M-4 0 l3 3 l6 -7"/></g>
    <g transform="translate(445.8 417.6) rotate(7.9) scale(0.95)"><!-- roller --><ellipse cx="-10" cy="0" rx="4" ry="8"/><path d="M-10 -8 h20 a4 8 0 0 1 0 16 h-20"/></g>
    <g transform="translate(503.9 420.9) rotate(-14.1) scale(0.95)"><!-- stressball --><circle r="8"/><path d="M-12 -3 q-2 3 0 6 M12 -3 q2 3 0 6"/></g>
    <g transform="translate(-0.1 420.9) rotate(-14.1) scale(0.95)"><!-- stressball --><circle r="8"/><path d="M-12 -3 q-2 3 0 6 M12 -3 q2 3 0 6"/></g>
    <g transform="translate(29.9 480.2) rotate(-13.8) scale(0.7)"><!-- bottle --><rect x="-5" y="-7" width="10" height="19" rx="3"/><path d="M-3 -7 v-4 h6 v4 M-5 1 h10"/></g>
    <g transform="translate(533.9 480.2) rotate(-13.8) scale(0.7)"><!-- bottle --><rect x="-5" y="-7" width="10" height="19" rx="3"/><path d="M-3 -7 v-4 h6 v4 M-5 1 h10"/></g>
    <g transform="translate(79.3 474.4) rotate(-9.4) scale(1.2)"><!-- target --><circle r="10"/><circle r="5.5"/><circle r="1.4"/></g>
    <g transform="translate(144.9 476.8) rotate(12.2) scale(0.95)"><!-- spiral --><path d="M1 1 q5 -1 4 -6 q-1 -7 -9 -6 q-10 1 -9 11 q1 12 14 11"/></g>
    <g transform="translate(197.5 471.3) rotate(8.4) scale(0.95)"><!-- band --><circle cx="-14" cy="-7" r="3.5"/><circle cx="14" cy="7" r="3.5"/><path d="M-11 -5 C -4 1 4 -1 11 5"/></g>
    <g transform="translate(250.8 473.0) rotate(10.3) scale(0.7)"><!-- zzz --><path d="M-9 -9 h8 l-8 8 h8"/><path d="M3 -2 h6 l-6 6 h6"/></g>
    <g transform="translate(304.4 471.8) rotate(9.8) scale(0.95)"><!-- shoe --><path d="M-15 5 q-1 -9 6 -9 q5 0 8 5 q3 4 8 4 h7 q2 5 -3 5 h-24 q-2 0 -2 -5"/><path d="M-5 -2 l3 3 M-1 -4 l3 3"/></g>
    <g transform="translate(367.7 478.9) rotate(-0.2) scale(0.95)"><!-- jumprope --><path d="M-12 -6 q-5 14 9 16 q14 2 16 -12"/><path d="M-12 -6 l-2 -6 M13 -2 l3 -6"/></g>
    <g transform="translate(416.8 472.5) rotate(1.9) scale(0.7)"><!-- hourglass --><path d="M-6 -10 h12 M-6 10 h12 M-5 -10 q0 7 5 10 q-5 3 -5 10 M5 -10 q0 7 -5 10 q5 3 5 10"/></g>
    <g transform="translate(473.1 478.7) rotate(-9.3) scale(0.95)"><!-- confetti --><path d="M-8 -8 l3 3 M7 -10 l2 4 M-10 5 l4 2 M8 8 l-3 -3"/><circle cx="0" cy="-2" r="1.7"/><circle cx="10" cy="0" r="1.7"/><circle cx="-6" cy="-13" r="1.7"/></g>
    <g transform="translate(-30.9 478.7) rotate(-9.3) scale(0.95)"><!-- confetti --><path d="M-8 -8 l3 3 M7 -10 l2 4 M-10 5 l4 2 M8 8 l-3 -3"/><circle cx="0" cy="-2" r="1.7"/><circle cx="10" cy="0" r="1.7"/><circle cx="-6" cy="-13" r="1.7"/></g>
    <g transform="translate(57.6 533.0) rotate(2.0) scale(1.2)"><!-- trophy --><path d="M-7 -11 h14 v6 a7 7 0 0 1 -14 0 z"/><path d="M-7 -9 q-5 0 -4 5 q1 4 4 3 M7 -9 q5 0 4 5 q-1 4 -4 3"/><path d="M0 2 v5 M-5 11 h10 M-3 7.5 h6"/></g>
    <g transform="translate(116.2 532.2) rotate(8.8) scale(0.95)"><!-- footprints --><ellipse cx="-6" cy="-2" rx="3.5" ry="6"/><circle cx="-6" cy="-10.5" r="1.7"/><ellipse cx="6" cy="7" rx="3.5" ry="6"/><circle cx="6" cy="-1.5" r="1.7"/></g>
    <g transform="translate(172.6 532.8) rotate(-7.8) scale(1.2)"><!-- sparkle --><path d="M0 -9 L2 -2 L9 0 L2 2 L0 9 L-2 2 L-9 0 L-2 -2 Z"/></g>
    <g transform="translate(222.3 534.1) rotate(9.4) scale(1.2)"><!-- towel --><path d="M-10 -12 h14 q4 0 4 4 v16 M-10 -12 v20 q0 4 4 4 h13"/></g>
    <g transform="translate(283.6 531.6) rotate(-11.4) scale(0.95)"><!-- lightning --><path d="M2 -11 l-9 12 h6 l-3 10 l10 -13 h-6 z"/></g>
    <g transform="translate(336.1 528.9) rotate(12.7) scale(0.95)"><!-- banana --><path d="M-10 -4 q0 12 13 12 q5 0 7 -3 q-4 1 -8 0 q-10 -2 -9 -9 z"/><path d="M-10 -4 l-1.5 -3.5"/></g>
    <g transform="translate(388.4 536.9) rotate(-10.4) scale(1.2)"><!-- dowel --><path d="M-13 13 L13 -13 M-11 6 l5 5 M6 -11 l5 5"/></g>
    <g transform="translate(448.1 533.2) rotate(-0.6) scale(0.95)"><!-- mat --><circle r="7"/><path d="M0 0 q4 0 4 -4"/><path d="M-13 10 h26"/></g>
    <g transform="translate(500.6 536.8) rotate(11.9) scale(0.95)"><!-- kettlebell --><circle cy="4" r="9.5"/><path d="M-5.5 -3 a 7 7 0 0 1 11 0"/></g>
    <g transform="translate(-3.4 536.8) rotate(11.9) scale(0.95)"><!-- kettlebell --><circle cy="4" r="9.5"/><path d="M-5.5 -3 a 7 7 0 0 1 11 0"/></g>
    <g transform="translate(25.0 588.2) rotate(9.4) scale(0.95)"><!-- target --><circle r="10"/><circle r="5.5"/><circle r="1.4"/></g>
    <g transform="translate(529.0 588.2) rotate(9.4) scale(0.95)"><!-- target --><circle r="10"/><circle r="5.5"/><circle r="1.4"/></g>
    <g transform="translate(82.7 590.3) rotate(15.5) scale(1.2)"><!-- spiral --><path d="M1 1 q5 -1 4 -6 q-1 -7 -9 -6 q-10 1 -9 11 q1 12 14 11"/></g>
    <g transform="translate(141.2 592.0) rotate(-1.4) scale(0.95)"><!-- hourglass --><path d="M-6 -10 h12 M-6 10 h12 M-5 -10 q0 7 5 10 q-5 3 -5 10 M5 -10 q0 7 -5 10 q5 3 5 10"/></g>
    <g transform="translate(196.7 587.9) rotate(-2.1) scale(1.2)"><!-- bowl --><path d="M-12 -2 h24"/><path d="M-12 -2 a12 11 0 0 0 24 0"/><path d="M5 -14 l7 7"/><circle cx="3.5" cy="-15.5" r="2.5"/><path d="M17 -8 q3 4 0 8"/></g>
    <g transform="translate(254.5 584.2) rotate(7.7) scale(0.95)"><!-- mat --><circle r="7"/><path d="M0 0 q4 0 4 -4"/><path d="M-13 10 h26"/></g>
    <g transform="translate(312.5 591.3) rotate(-0.7) scale(0.95)"><!-- kettlebell --><circle cy="4" r="9.5"/><path d="M-5.5 -3 a 7 7 0 0 1 11 0"/></g>
    <g transform="translate(368.1 583.6) rotate(0.6) scale(1.2)"><!-- banana --><path d="M-10 -4 q0 12 13 12 q5 0 7 -3 q-4 1 -8 0 q-10 -2 -9 -9 z"/><path d="M-10 -4 l-1.5 -3.5"/></g>
    <g transform="translate(421.8 588.6) rotate(4.0) scale(0.95)"><!-- heart --><path d="M0 9 C -11 2 -10 -8 -4 -8 C -1 -8 0 -5 0 -5 C 0 -5 1 -8 4 -8 C 10 -8 11 2 0 9 Z"/><path d="M-8 -1 h4 l2 -4 l3 7 l2 -3 h4"/></g>
    <g transform="translate(477.6 592.8) rotate(17.3) scale(0.7)"><!-- jumprope --><path d="M-12 -6 q-5 14 9 16 q14 2 16 -12"/><path d="M-12 -6 l-2 -6 M13 -2 l3 -6"/></g>
    <g transform="translate(-26.4 592.8) rotate(17.3) scale(0.7)"><!-- jumprope --><path d="M-12 -6 q-5 14 9 16 q14 2 16 -12"/><path d="M-12 -6 l-2 -6 M13 -2 l3 -6"/></g>
    <g transform="translate(59.1 648.6) rotate(11.2) scale(0.7)"><!-- stopwatch --><circle cx="0" cy="2" r="11"/><path d="M0 2 v-6 M0 -13 v4 M-4 -13 h8 M9 -9 l3 -3"/></g>
    <g transform="translate(107.9 648.9) rotate(-16.7) scale(1.2)"><!-- band --><circle cx="-14" cy="-7" r="3.5"/><circle cx="14" cy="7" r="3.5"/><path d="M-11 -5 C -4 1 4 -1 11 5"/></g>
    <g transform="translate(171.7 645.8) rotate(9.9) scale(0.95)"><!-- check --><circle r="9"/><path d="M-4 0 l3 3 l6 -7"/></g>
    <g transform="translate(227.4 643.5) rotate(15.2) scale(0.95)"><!-- towel --><path d="M-10 -12 h14 q4 0 4 4 v16 M-10 -12 v20 q0 4 4 4 h13"/></g>
    <g transform="translate(277.5 640.6) rotate(-4.5) scale(0.95)"><!-- bicep --><path d="M-11 11 q-1 -13 7 -15 l1 -5 q0 -2 2 -2 l4 1 q2 1 1 3 l-1 5 q8 3 7 13"/><circle cx="3" cy="-9" r="2.2"/></g>
    <g transform="translate(331.5 640.4) rotate(-9.4) scale(0.7)"><!-- trophy --><path d="M-7 -11 h14 v6 a7 7 0 0 1 -14 0 z"/><path d="M-7 -9 q-5 0 -4 5 q1 4 4 3 M7 -9 q5 0 4 5 q-1 4 -4 3"/><path d="M0 2 v5 M-5 11 h10 M-3 7.5 h6"/></g>
    <g transform="translate(390.7 645.4) rotate(17.1) scale(0.95)"><!-- confetti --><path d="M-8 -8 l3 3 M7 -10 l2 4 M-10 5 l4 2 M8 8 l-3 -3"/><circle cx="0" cy="-2" r="1.7"/><circle cx="10" cy="0" r="1.7"/><circle cx="-6" cy="-13" r="1.7"/></g>
    <g transform="translate(450.9 646.4) rotate(-17.4) scale(0.95)"><!-- dowel --><path d="M-13 13 L13 -13 M-11 6 l5 5 M6 -11 l5 5"/></g>
    <g transform="translate(3.8 641.5) rotate(3.3) scale(0.95)"><!-- mug --><rect x="-10" y="-4" width="15" height="13" rx="3"/><path d="M5 -2 a4.5 4.5 0 0 1 0 9"/><path d="M-6 -9 q2 -3 0 -6 M1 -9 q2 -3 0 -6"/></g>
    <g transform="translate(507.8 641.5) rotate(3.3) scale(0.95)"><!-- mug --><rect x="-10" y="-4" width="15" height="13" rx="3"/><path d="M5 -2 a4.5 4.5 0 0 1 0 9"/><path d="M-6 -9 q2 -3 0 -6 M1 -9 q2 -3 0 -6"/></g>
    <g transform="translate(27.7 698.8) rotate(12.3) scale(0.7)"><!-- sun --><circle r="6"/><path d="M0 -13 v4 M0 9 v4 M-13 0 h4 M9 0 h4 M-9 -9 l2.5 2.5 M6.5 6.5 l2.5 2.5 M-9 9 l2.5 -2.5 M6.5 -6.5 l2.5 -2.5"/></g>
    <g transform="translate(27.7 -29.2) rotate(12.3) scale(0.7)"><!-- sun --><circle r="6"/><path d="M0 -13 v4 M0 9 v4 M-13 0 h4 M9 0 h4 M-9 -9 l2.5 2.5 M6.5 6.5 l2.5 2.5 M-9 9 l2.5 -2.5 M6.5 -6.5 l2.5 -2.5"/></g>
    <g transform="translate(531.7 698.8) rotate(12.3) scale(0.7)"><!-- sun --><circle r="6"/><path d="M0 -13 v4 M0 9 v4 M-13 0 h4 M9 0 h4 M-9 -9 l2.5 2.5 M6.5 6.5 l2.5 2.5 M-9 9 l2.5 -2.5 M6.5 -6.5 l2.5 -2.5"/></g>
    <g transform="translate(531.7 -29.2) rotate(12.3) scale(0.7)"><!-- sun --><circle r="6"/><path d="M0 -13 v4 M0 9 v4 M-13 0 h4 M9 0 h4 M-9 -9 l2.5 2.5 M6.5 6.5 l2.5 2.5 M-9 9 l2.5 -2.5 M6.5 -6.5 l2.5 -2.5"/></g>
    <g transform="translate(82.2 699.6) rotate(1.1) scale(0.95)"><!-- lightning --><path d="M2 -11 l-9 12 h6 l-3 10 l10 -13 h-6 z"/></g>
    <g transform="translate(82.2 -28.4) rotate(1.1) scale(0.95)"><!-- lightning --><path d="M2 -11 l-9 12 h6 l-3 10 l10 -13 h-6 z"/></g>
    <g transform="translate(136.7 700.9) rotate(-15.3) scale(0.7)"><!-- bottle --><rect x="-5" y="-7" width="10" height="19" rx="3"/><path d="M-3 -7 v-4 h6 v4 M-5 1 h10"/></g>
    <g transform="translate(136.7 -27.1) rotate(-15.3) scale(0.7)"><!-- bottle --><rect x="-5" y="-7" width="10" height="19" rx="3"/><path d="M-3 -7 v-4 h6 v4 M-5 1 h10"/></g>
    <g transform="translate(199.0 699.3) rotate(3.5) scale(0.95)"><!-- shoe --><path d="M-15 5 q-1 -9 6 -9 q5 0 8 5 q3 4 8 4 h7 q2 5 -3 5 h-24 q-2 0 -2 -5"/><path d="M-5 -2 l3 3 M-1 -4 l3 3"/></g>
    <g transform="translate(199.0 -28.7) rotate(3.5) scale(0.95)"><!-- shoe --><path d="M-15 5 q-1 -9 6 -9 q5 0 8 5 q3 4 8 4 h7 q2 5 -3 5 h-24 q-2 0 -2 -5"/><path d="M-5 -2 l3 3 M-1 -4 l3 3"/></g>
    <g transform="translate(250.9 700.9) rotate(-11.9) scale(0.7)"><!-- roller --><ellipse cx="-10" cy="0" rx="4" ry="8"/><path d="M-10 -8 h20 a4 8 0 0 1 0 16 h-20"/></g>
    <g transform="translate(250.9 -27.1) rotate(-11.9) scale(0.7)"><!-- roller --><ellipse cx="-10" cy="0" rx="4" ry="8"/><path d="M-10 -8 h20 a4 8 0 0 1 0 16 h-20"/></g>
    <g transform="translate(304.8 701.8) rotate(7.5) scale(0.7)"><!-- moon --><path d="M3 -11 a11 11 0 1 0 7 17 a9 9 0 0 1 -7 -17"/><path d="M11 -4 v6 M8 -1 h6"/></g>
    <g transform="translate(304.8 -26.2) rotate(7.5) scale(0.7)"><!-- moon --><path d="M3 -11 a11 11 0 1 0 7 17 a9 9 0 0 1 -7 -17"/><path d="M11 -4 v6 M8 -1 h6"/></g>
    <g transform="translate(364.5 701.3) rotate(14.3) scale(0.95)"><!-- zzz --><path d="M-9 -9 h8 l-8 8 h8"/><path d="M3 -2 h6 l-6 6 h6"/></g>
    <g transform="translate(364.5 -26.7) rotate(14.3) scale(0.95)"><!-- zzz --><path d="M-9 -9 h8 l-8 8 h8"/><path d="M3 -2 h6 l-6 6 h6"/></g>
    <g transform="translate(415.0 695.6) rotate(-14.6) scale(0.7)"><!-- dumbbell --><path d="M-14 -7 v14 M-9 -10 v20 M9 -10 v20 M14 -7 v14 M-9 0 h18"/></g>
    <g transform="translate(471.0 695.3) rotate(0.9) scale(0.7)"><!-- breath --><path d="M-10 -6 q4 -3 8 0 t8 0 M-10 0 q4 -3 8 0 t8 0 M-10 6 q4 -3 8 0 t8 0"/></g>
    <g transform="translate(2.0 1.1) rotate(-17.9)"><path d="M0 -5 v10 M-5 0 h10"/></g>
    <g transform="translate(2.0 729.1) rotate(-17.9)"><path d="M0 -5 v10 M-5 0 h10"/></g>
    <g transform="translate(506.0 1.1) rotate(-17.9)"><path d="M0 -5 v10 M-5 0 h10"/></g>
    <g transform="translate(506.0 729.1) rotate(-17.9)"><path d="M0 -5 v10 M-5 0 h10"/></g>
    <g transform="translate(54.8 725.6) rotate(8.7)"><path d="M0 -4 L1.5 0 L0 4 L-1.5 0 Z"/></g>
    <g transform="translate(54.8 -2.4) rotate(8.7)"><path d="M0 -4 L1.5 0 L0 4 L-1.5 0 Z"/></g>
    <g transform="translate(113.0 0.7) rotate(12.6)"><path d="M0 -4 L1.5 0 L0 4 L-1.5 0 Z"/></g>
    <g transform="translate(113.0 728.7) rotate(12.6)"><path d="M0 -4 L1.5 0 L0 4 L-1.5 0 Z"/></g>
    <g transform="translate(168.7 727.3) rotate(3.3)"><circle r="3.5"/></g>
    <g transform="translate(168.7 -0.7) rotate(3.3)"><circle r="3.5"/></g>
    <g transform="translate(225.7 1.9) rotate(-7.9)"><path d="M-3 -3 l6 6 M3 -3 l-6 6"/></g>
    <g transform="translate(225.7 729.9) rotate(-7.9)"><path d="M-3 -3 l6 6 M3 -3 l-6 6"/></g>
    <g transform="translate(336.8 726.7) rotate(6.0)"><path d="M-3 -3 l6 6 M3 -3 l-6 6"/></g>
    <g transform="translate(336.8 -1.3) rotate(6.0)"><path d="M-3 -3 l6 6 M3 -3 l-6 6"/></g>
    <g transform="translate(446.7 3.3) rotate(0.3)"><path d="M-3 -3 l6 6 M3 -3 l-6 6"/></g>
    <g transform="translate(446.7 731.3) rotate(0.3)"><path d="M-3 -3 l6 6 M3 -3 l-6 6"/></g>
    <g transform="translate(501.2 54.6) rotate(17.4)"><path d="M0 -4 L1.5 0 L0 4 L-1.5 0 Z"/></g>
    <g transform="translate(-2.8 54.6) rotate(17.4)"><path d="M0 -4 L1.5 0 L0 4 L-1.5 0 Z"/></g>
    <g transform="translate(113.2 56.8) rotate(17.6)"><circle r="3.5"/></g>
    <g transform="translate(227.6 54.5) rotate(0.4)"><path d="M0 -5 v10 M-5 0 h10"/></g>
    <g transform="translate(278.3 59.6) rotate(4.6)"><circle r="3.5"/></g>
    <g transform="translate(334.9 55.6) rotate(-11.7)"><path d="M0 -4 L1.5 0 L0 4 L-1.5 0 Z"/></g>
    <g transform="translate(448.3 59.1) rotate(3.1)"><path d="M-3 -3 l6 6 M3 -3 l-6 6"/></g>
    <g transform="translate(1.0 111.6) rotate(3.2)"><path d="M0 -4 L1.5 0 L0 4 L-1.5 0 Z"/></g>
    <g transform="translate(505.0 111.6) rotate(3.2)"><path d="M0 -4 L1.5 0 L0 4 L-1.5 0 Z"/></g>
    <g transform="translate(55.3 109.4) rotate(-17.8)"><path d="M-7 0 q2 -4 4 0 t4 0 t4 0"/></g>
    <g transform="translate(110.6 108.2) rotate(-13.5)"><path d="M0 -4 L1.5 0 L0 4 L-1.5 0 Z"/></g>
    <g transform="translate(164.3 111.7) rotate(7.2)"><circle r="2" fill="#828282" stroke="none"/></g>
    <g transform="translate(221.7 110.2) rotate(4.3)"><path d="M0 -5 v10 M-5 0 h10"/></g>
    <g transform="translate(280.9 111.7) rotate(11.4)"><circle r="2" fill="#828282" stroke="none"/></g>
    <g transform="translate(334.8 115.1) rotate(12.9)"><path d="M-3 -3 l6 6 M3 -3 l-6 6"/></g>
    <g transform="translate(389.4 113.3) rotate(4.0)"><path d="M-7 0 q2 -4 4 0 t4 0 t4 0"/></g>
    <g transform="translate(503.0 165.3) rotate(14.5)"><path d="M0 -4 L1.5 0 L0 4 L-1.5 0 Z"/></g>
    <g transform="translate(-1.0 165.3) rotate(14.5)"><path d="M0 -4 L1.5 0 L0 4 L-1.5 0 Z"/></g>
    <g transform="translate(52.3 170.9) rotate(-14.6)"><path d="M0 -4 L1.5 0 L0 4 L-1.5 0 Z"/></g>
    <g transform="translate(112.8 171.8) rotate(0.9)"><path d="M-7 0 q2 -4 4 0 t4 0 t4 0"/></g>
    <g transform="translate(171.2 171.1) rotate(-14.8)"><circle r="3.5"/></g>
    <g transform="translate(281.6 168.3) rotate(-2.1)"><circle r="3.5"/></g>
    <g transform="translate(334.7 169.2) rotate(13.4)"><path d="M-3 -3 l6 6 M3 -3 l-6 6"/></g>
    <g transform="translate(392.7 167.9) rotate(0.6)"><path d="M-7 0 q2 -4 4 0 t4 0 t4 0"/></g>
    <g transform="translate(447.3 172.0) rotate(-10.0)"><path d="M0 -5 v10 M-5 0 h10"/></g>
    <g transform="translate(501.2 220.4) rotate(-13.6)"><path d="M0 -5 v10 M-5 0 h10"/></g>
    <g transform="translate(-2.8 220.4) rotate(-13.6)"><path d="M0 -5 v10 M-5 0 h10"/></g>
    <g transform="translate(56.2 223.6) rotate(-4.4)"><path d="M-3 -3 l6 6 M3 -3 l-6 6"/></g>
    <g transform="translate(111.5 222.8) rotate(9.0)"><circle r="3.5"/></g>
    <g transform="translate(166.1 220.9) rotate(12.4)"><path d="M0 -5 v10 M-5 0 h10"/></g>
    <g transform="translate(227.6 220.3) rotate(9.1)"><path d="M0 -4 L1.5 0 L0 4 L-1.5 0 Z"/></g>
    <g transform="translate(281.0 227.0) rotate(-11.2)"><path d="M-3 -3 l6 6 M3 -3 l-6 6"/></g>
    <g transform="translate(339.8 223.6) rotate(-3.0)"><circle r="2" fill="#828282" stroke="none"/></g>
    <g transform="translate(388.4 223.1) rotate(-0.7)"><path d="M0 -5 v10 M-5 0 h10"/></g>
    <g transform="translate(451.7 226.1) rotate(-9.7)"><circle r="2" fill="#828282" stroke="none"/></g>
    <g transform="translate(1.5 282.3) rotate(17.1)"><path d="M-3 -3 l6 6 M3 -3 l-6 6"/></g>
    <g transform="translate(505.5 282.3) rotate(17.1)"><path d="M-3 -3 l6 6 M3 -3 l-6 6"/></g>
    <g transform="translate(113.7 280.1) rotate(11.6)"><circle r="3.5"/></g>
    <g transform="translate(170.7 283.3) rotate(15.6)"><circle r="3.5"/></g>
    <g transform="translate(220.1 283.6) rotate(6.2)"><path d="M0 -4 L1.5 0 L0 4 L-1.5 0 Z"/></g>
    <g transform="translate(281.1 281.5) rotate(10.6)"><circle r="2" fill="#828282" stroke="none"/></g>
    <g transform="translate(333.8 280.2) rotate(-4.7)"><circle r="2" fill="#828282" stroke="none"/></g>
    <g transform="translate(395.2 283.9) rotate(2.0)"><circle r="3.5"/></g>
    <g transform="translate(450.5 276.3) rotate(15.3)"><path d="M0 -5 v10 M-5 0 h10"/></g>
    <g transform="translate(109.2 334.9) rotate(-7.8)"><circle r="2" fill="#828282" stroke="none"/></g>
    <g transform="translate(168.4 336.8) rotate(5.7)"><path d="M0 -4 L1.5 0 L0 4 L-1.5 0 Z"/></g>
    <g transform="translate(227.1 337.5) rotate(4.5)"><path d="M0 -5 v10 M-5 0 h10"/></g>
    <g transform="translate(277.8 335.4) rotate(-14.3)"><path d="M-3 -3 l6 6 M3 -3 l-6 6"/></g>
    <g transform="translate(333.8 336.9) rotate(3.9)"><path d="M0 -4 L1.5 0 L0 4 L-1.5 0 Z"/></g>
    <g transform="translate(391.2 334.8) rotate(-2.6)"><path d="M-7 0 q2 -4 4 0 t4 0 t4 0"/></g>
    <g transform="translate(449.0 337.2) rotate(5.3)"><path d="M-3 -3 l6 6 M3 -3 l-6 6"/></g>
    <g transform="translate(58.2 389.2) rotate(-1.5)"><path d="M0 -4 L1.5 0 L0 4 L-1.5 0 Z"/></g>
    <g transform="translate(109.6 395.8) rotate(15.2)"><path d="M0 -5 v10 M-5 0 h10"/></g>
    <g transform="translate(280.0 394.9) rotate(-8.2)"><path d="M0 -5 v10 M-5 0 h10"/></g>
    <g transform="translate(334.8 393.8) rotate(-5.2)"><path d="M-3 -3 l6 6 M3 -3 l-6 6"/></g>
    <g transform="translate(395.6 393.9) rotate(-1.4)"><circle r="3.5"/></g>
    <g transform="translate(446.9 390.2) rotate(-10.5)"><circle r="2" fill="#828282" stroke="none"/></g>
    <g transform="translate(501.2 446.1) rotate(-16.6)"><path d="M-7 0 q2 -4 4 0 t4 0 t4 0"/></g>
    <g transform="translate(-2.8 446.1) rotate(-16.6)"><path d="M-7 0 q2 -4 4 0 t4 0 t4 0"/></g>
    <g transform="translate(57.9 448.4) rotate(-1.7)"><path d="M0 -5 v10 M-5 0 h10"/></g>
    <g transform="translate(112.7 446.4) rotate(10.1)"><path d="M-3 -3 l6 6 M3 -3 l-6 6"/></g>
    <g transform="translate(169.3 447.9) rotate(-4.8)"><path d="M0 -4 L1.5 0 L0 4 L-1.5 0 Z"/></g>
    <g transform="translate(279.3 447.3) rotate(-7.5)"><path d="M-7 0 q2 -4 4 0 t4 0 t4 0"/></g>
    <g transform="translate(333.5 449.2) rotate(10.5)"><path d="M0 -4 L1.5 0 L0 4 L-1.5 0 Z"/></g>
    <g transform="translate(56.1 503.1) rotate(12.8)"><circle r="3.5"/></g>
    <g transform="translate(112.8 500.2) rotate(-13.3)"><path d="M-7 0 q2 -4 4 0 t4 0 t4 0"/></g>
    <g transform="translate(165.9 501.4) rotate(-4.2)"><path d="M-3 -3 l6 6 M3 -3 l-6 6"/></g>
    <g transform="translate(225.7 506.9) rotate(11.2)"><circle r="3.5"/></g>
    <g transform="translate(278.9 502.0) rotate(-15.9)"><path d="M-7 0 q2 -4 4 0 t4 0 t4 0"/></g>
    <g transform="translate(339.1 503.9) rotate(-8.9)"><path d="M0 -4 L1.5 0 L0 4 L-1.5 0 Z"/></g>
    <g transform="translate(390.2 507.1) rotate(10.7)"><path d="M0 -4 L1.5 0 L0 4 L-1.5 0 Z"/></g>
    <g transform="translate(448.1 507.3) rotate(-3.3)"><path d="M-3 -3 l6 6 M3 -3 l-6 6"/></g>
    <g transform="translate(500.7 563.0) rotate(7.9)"><path d="M-3 -3 l6 6 M3 -3 l-6 6"/></g>
    <g transform="translate(-3.3 563.0) rotate(7.9)"><path d="M-3 -3 l6 6 M3 -3 l-6 6"/></g>
    <g transform="translate(52.9 562.7) rotate(-3.9)"><path d="M0 -4 L1.5 0 L0 4 L-1.5 0 Z"/></g>
    <g transform="translate(166.9 560.3) rotate(-16.4)"><circle r="3.5"/></g>
    <g transform="translate(336.3 557.6) rotate(-14.9)"><path d="M-3 -3 l6 6 M3 -3 l-6 6"/></g>
    <g transform="translate(390.3 564.0) rotate(5.8)"><circle r="3.5"/></g>
    <g transform="translate(445.7 557.8) rotate(14.2)"><path d="M-3 -3 l6 6 M3 -3 l-6 6"/></g>
    <g transform="translate(503.1 618.0) rotate(-11.7)"><path d="M0 -4 L1.5 0 L0 4 L-1.5 0 Z"/></g>
    <g transform="translate(-0.9 618.0) rotate(-11.7)"><path d="M0 -4 L1.5 0 L0 4 L-1.5 0 Z"/></g>
    <g transform="translate(56.7 614.8) rotate(-0.4)"><path d="M0 -5 v10 M-5 0 h10"/></g>
    <g transform="translate(113.3 613.7) rotate(6.6)"><path d="M-7 0 q2 -4 4 0 t4 0 t4 0"/></g>
    <g transform="translate(165.1 614.6) rotate(-11.7)"><path d="M-3 -3 l6 6 M3 -3 l-6 6"/></g>
    <g transform="translate(224.2 618.0) rotate(-8.0)"><circle r="2" fill="#828282" stroke="none"/></g>
    <g transform="translate(276.6 618.3) rotate(-0.9)"><circle r="3.5"/></g>
    <g transform="translate(336.5 616.2) rotate(12.2)"><path d="M-3 -3 l6 6 M3 -3 l-6 6"/></g>
    <g transform="translate(388.0 618.6) rotate(10.4)"><path d="M0 -4 L1.5 0 L0 4 L-1.5 0 Z"/></g>
    <g transform="translate(446.2 613.9) rotate(11.0)"><path d="M0 -5 v10 M-5 0 h10"/></g>
    <g transform="translate(502.3 673.0) rotate(8.3)"><path d="M-7 0 q2 -4 4 0 t4 0 t4 0"/></g>
    <g transform="translate(-1.7 673.0) rotate(8.3)"><path d="M-7 0 q2 -4 4 0 t4 0 t4 0"/></g>
    <g transform="translate(114.9 675.3) rotate(7.3)"><path d="M-3 -3 l6 6 M3 -3 l-6 6"/></g>
    <g transform="translate(165.6 668.5) rotate(0.2)"><path d="M0 -4 L1.5 0 L0 4 L-1.5 0 Z"/></g>
    <g transform="translate(227.8 675.7) rotate(8.0)"><path d="M-3 -3 l6 6 M3 -3 l-6 6"/></g>
    <g transform="translate(282.4 668.6) rotate(-7.2)"><path d="M0 -4 L1.5 0 L0 4 L-1.5 0 Z"/></g>
    <g transform="translate(340.0 674.1) rotate(8.9)"><path d="M-7 0 q2 -4 4 0 t4 0 t4 0"/></g>
    <g transform="translate(450.9 672.8) rotate(14.6)"><path d="M0 -5 v10 M-5 0 h10"/></g>
  </g>
</svg>
