<svg xmlns="http://www.w3.org/2000/svg" viewBox="0 0 522 754" width="522" height="754">
  <!-- Generated by scripts/generate-doodles.mjs — edit that, not this. -->
  <g fill="none" stroke="#828282" stroke-width="2.4" stroke-linecap="round" stroke-linejoin="round" opacity="0.16">
    <g transform="translate(28.4 33.2) rotate(6.1) scale(0.85)"><!-- stressball --><circle r="8"/><path d="M-12 -3 q-2 3 0 6 M12 -3 q2 3 0 6"/></g>
    <g transform="translate(84.8 28.4) rotate(-16.7) scale(0.6)"><!-- lightning --><path d="M2 -11 l-9 12 h6 l-3 10 l10 -13 h-6 z"/></g>
    <g transform="translate(145.7 30.2) rotate(-9.2) scale(1.1)"><!-- confetti --><path d="M-8 -8 l3 3 M7 -10 l2 4 M-10 5 l4 2 M8 8 l-3 -3"/><circle cx="0" cy="-2" r="1.7"/><circle cx="10" cy="0" r="1.7"/><circle cx="-6" cy="-13" r="1.7"/></g>
    <g transform="translate(199.5 26.6) rotate(8.6) scale(0.85)"><!-- stopwatch --><circle cx="0" cy="2" r="11"/><path d="M0 2 v-6 M0 -13 v4 M-4 -13 h8 M9 -9 l3 -3"/></g>
    <g transform="translate(261.1 25.5) rotate(-7.8) scale(0.6)"><!-- moon --><path d="M3 -11 a11 11 0 1 0 7 17 a9 9 0 0 1 -7 -17"/><path d="M11 -4 v6 M8 -1 h6"/></g>
    <g transform="translate(313.9 30.9) rotate(6.5) scale(0.85)"><!-- towel --><path d="M-10 -12 h14 q4 0 4 4 v16 M-10 -12 v20 q0 4 4 4 h13"/></g>
    <g transform="translate(382.1 24.1) rotate(16.0) scale(0.85)"><!-- hourglass --><path d="M-6 -10 h12 M-6 10 h12 M-5 -10 q0 7 5 10 q-5 3 -5 10 M5 -10 q0 7 -5 10 q5 3 5 10"/></g>
    <g transform="translate(440.3 24.6) rotate(-14.0) scale(0.85)"><!-- mug --><rect x="-10" y="-4" width="15" height="13" rx="3"/><path d="M5 -2 a4.5 4.5 0 0 1 0 9"/><path d="M-6 -9 q2 -3 0 -6 M1 -9 q2 -3 0 -6"/></g>
    <g transform="translate(491.3 28.8) rotate(4.0) scale(1.1)"><!-- zzz --><path d="M-9 -9 h8 l-8 8 h8"/><path d="M3 -2 h6 l-6 6 h6"/></g>
    <g transform="translate(52.9 89.6) rotate(15.7) scale(0.6)"><!-- bowl --><path d="M-12 -2 h24"/><path d="M-12 -2 a12 11 0 0 0 24 0"/><path d="M5 -14 l7 7"/><circle cx="3.5" cy="-15.5" r="2.5"/><path d="M17 -8 q3 4 0 8"/></g>
    <g transform="translate(118.5 83.2) rotate(0.7) scale(0.85)"><!-- spiral --><path d="M1 1 q5 -1 4 -6 q-1 -7 -9 -6 q-10 1 -9 11 q1 12 14 11"/></g>
    <g transform="translate(169.4 92.9) rotate(2.3) scale(0.6)"><!-- footprints --><ellipse cx="-6" cy="-2" rx="3.5" ry="6"/><circle cx="-6" cy="-10.5" r="1.7"/><ellipse cx="6" cy="7" rx="3.5" ry="6"/><circle cx="6" cy="-1.5" r="1.7"/></g>
    <g transform="translate(231.2 87.9) rotate(-5.9) scale(0.6)"><!-- jumprope --><path d="M-12 -6 q-5 14 9 16 q14 2 16 -12"/><path d="M-12 -6 l-2 -6 M13 -2 l3 -6"/></g>
    <g transform="translate(287.9 89.8) rotate(-7.4) scale(0.85)"><!-- target --><circle r="10"/><circle r="5.5"/><circle r="1.4"/></g>
    <g transform="translate(352.1 89.3) rotate(17.8) scale(0.85)"><!-- check --><circle r="9"/><path d="M-4 0 l3 3 l6 -7"/></g>
    <g transform="translate(405.2 87.5) rotate(-7.3) scale(0.6)"><!-- dumbbell --><path d="M-14 -7 v14 M-9 -10 v20 M9 -10 v20 M14 -7 v14 M-9 0 h18"/></g>
    <g transform="translate(466.4 84.8) rotate(10.3) scale(1.1)"><!-- bottle --><rect x="-5" y="-7" width="10" height="19" rx="3"/><path d="M-3 -7 v-4 h6 v4 M-5 1 h10"/></g>
    <g transform="translate(24.1 144.7) rotate(11.6) scale(0.6)"><!-- sun --><circle r="6"/><path d="M0 -13 v4 M0 9 v4 M-13 0 h4 M9 0 h4 M-9 -9 l2.5 2.5 M6.5 6.5 l2.5 2.5 M-9 9 l2.5 -2.5 M6.5 -6.5 l2.5 -2.5"/></g>
    <g transform="translate(92.7 141.1) rotate(7.5) scale(1.1)"><!-- roller --><ellipse cx="-10" cy="0" rx="4" ry="8"/><path d="M-10 -8 h20 a4 8 0 0 1 0 16 h-20"/></g>
    <g transform="translate(141.7 144.0) rotate(-12.1) scale(0.85)"><!-- heart --><path d="M0 9 C -11 2 -10 -8 -4 -8 C -1 -8 0 -5 0 -5 C 0 -5 1 -8 4 -8 C 10 -8 11 2 0 9 Z"/><path d="M-8 -1 h4 l2 -4 l3 7 l2 -3 h4"/></g>
    <g transform="translate(201.0 141.5) rotate(4.6) scale(0.85)"><!-- band --><circle cx="-14" cy="-7" r="3.5"/><circle cx="14" cy="7" r="3.5"/><path d="M-11 -5 C -4 1 4 -1 11 5"/></g>
    <g transform="translate(258.9 148.5) rotate(-3.9) scale(0.6)"><!-- banana --><path d="M-10 -4 q0 12 13 12 q5 0 7 -3 q-4 1 -8 0 q-10 -2 -9 -9 z"/><path d="M-10 -4 l-1.5 -3.5"/></g>
    <g transform="translate(323.4 143.4) rotate(-17.7) scale(1.1)"><!-- kettlebell --><circle cy="4" r="9.5"/><path d="M-5.5 -3 a 7 7 0 0 1 11 0"/></g>
    <g transform="translate(378.6 149.5) rotate(14.7) scale(0.6)"><!-- breath --><path d="M-10 -6 q4 -3 8 0 t8 0 M-10 0 q4 -3 8 0 t8 0 M-10 6 q4 -3 8 0 t8 0"/></g>
    <g transform="translate(436.2 144.9) rotate(-11.4) scale(0.85)"><!-- bicep --><path d="M-11 11 q-1 -13 7 -15 l1 -5 q0 -2 2 -2 l4 1 q2 1 1 3 l-1 5 q8 3 7 13"/><circle cx="3" cy="-9" r="2.2"/></g>
    <g transform="translate(495.5 147.5) rotate(-7.5) scale(1.1)"><!-- trophy --><path d="M-7 -11 h14 v6 a7 7 0 0 1 -14 0 z"/><path d="M-7 -9 q-5 0 -4 5 q1 4 4 3 M7 -9 q5 0 4 5 q-1 4 -4 3"/><path d="M0 2 v5 M-5 11 h10 M-3 7.5 h6"/></g>
    <g transform="translate(56.0 197.3) rotate(-10.0) scale(0.85)"><!-- mat --><circle r="7"/><path d="M0 0 q4 0 4 -4"/><path d="M-13 10 h26"/></g>
    <g transform="translate(116.9 208.9) rotate(-12.1) scale(0.6)"><!-- sparkle --><path d="M0 -9 L2 -2 L9 0 L2 2 L0 9 L-2 2 L-9 0 L-2 -2 Z"/></g>
    <g transform="translate(174.7 200.5) rotate(-3.8) scale(1.1)"><!-- dowel --><path d="M-13 13 L13 -13 M-11 6 l5 5 M6 -11 l5 5"/></g>
    <g transform="translate(231.0 205.2) rotate(-3.7) scale(0.85)"><!-- shoe --><path d="M-15 5 q-1 -9 6 -9 q5 0 8 5 q3 4 8 4 h7 q2 5 -3 5 h-24 q-2 0 -2 -5"/><path d="M-5 -2 l3 3 M-1 -4 l3 3"/></g>
    <g transform="translate(294.7 200.9) rotate(-0.2) scale(0.85)"><!-- sun --><circle r="6"/><path d="M0 -13 v4 M0 9 v4 M-13 0 h4 M9 0 h4 M-9 -9 l2.5 2.5 M6.5 6.5 l2.5 2.5 M-9 9 l2.5 -2.5 M6.5 -6.5 l2.5 -2.5"/></g>
    <g transform="translate(349.4 206.7) rotate(-10.5) scale(1.1)"><!-- trophy --><path d="M-7 -11 h14 v6 a7 7 0 0 1 -14 0 z"/><path d="M-7 -9 q-5 0 -4 5 q1 4 4 3 M7 -9 q5 0 4 5 q-1 4 -4 3"/><path d="M0 2 v5 M-5 11 h10 M-3 7.5 h6"/></g>
    <g transform="translate(406.5 208.8) rotate(-0.3) scale(0.85)"><!-- bicep --><path d="M-11 11 q-1 -13 7 -15 l1 -5 q0 -2 2 -2 l4 1 q2 1 1 3 l-1 5 q8 3 7 13"/><circle cx="3" cy="-9" r="2.2"/></g>
    <g transform="translate(468.1 205.9) rotate(-16.1) scale(0.6)"><!-- footprints --><ellipse cx="-6" cy="-2" rx="3.5" ry="6"/><circle cx="-6" cy="-10.5" r="1.7"/><ellipse cx="6" cy="7" rx="3.5" ry="6"/><circle cx="6" cy="-1.5" r="1.7"/></g>
    <g transform="translate(26.2 261.1) rotate(6.4) scale(1.1)"><!-- towel --><path d="M-10 -12 h14 q4 0 4 4 v16 M-10 -12 v20 q0 4 4 4 h13"/></g>
    <g transform="translate(92.9 264.8) rotate(4.7) scale(0.6)"><!-- check --><circle r="9"/><path d="M-4 0 l3 3 l6 -7"/></g>
    <g transform="translate(149.2 262.2) rotate(-5.4) scale(0.6)"><!-- mug --><rect x="-10" y="-4" width="15" height="13" rx="3"/><path d="M5 -2 a4.5 4.5 0 0 1 0 9"/><path d="M-6 -9 q2 -3 0 -6 M1 -9 q2 -3 0 -6"/></g>
    <g transform="translate(207.5 263.2) rotate(-5.4) scale(0.85)"><!-- kettlebell --><circle cy="4" r="9.5"/><path d="M-5.5 -3 a 7 7 0 0 1 11 0"/></g>
    <g transform="translate(262.5 259.0) rotate(12.4) scale(0.6)"><!-- bottle --><rect x="-5" y="-7" width="10" height="19" rx="3"/><path d="M-3 -7 v-4 h6 v4 M-5 1 h10"/></g>
    <g transform="translate(317.4 255.2) rotate(-14.9) scale(1.1)"><!-- roller --><ellipse cx="-10" cy="0" rx="4" ry="8"/><path d="M-10 -8 h20 a4 8 0 0 1 0 16 h-20"/></g>
    <g transform="translate(379.7 266.5) rotate(13.7) scale(0.85)"><!-- hourglass --><path d="M-6 -10 h12 M-6 10 h12 M-5 -10 q0 7 5 10 q-5 3 -5 10 M5 -10 q0 7 -5 10 q5 3 5 10"/></g>
    <g transform="translate(437.5 256.7) rotate(-8.2) scale(0.85)"><!-- zzz --><path d="M-9 -9 h8 l-8 8 h8"/><path d="M3 -2 h6 l-6 6 h6"/></g>
    <g transform="translate(487.6 258.5) rotate(-2.1) scale(1.1)"><!-- banana --><path d="M-10 -4 q0 12 13 12 q5 0 7 -3 q-4 1 -8 0 q-10 -2 -9 -9 z"/><path d="M-10 -4 l-1.5 -3.5"/></g>
    <g transform="translate(60.6 322.5) rotate(10.3) scale(0.85)"><!-- spiral --><path d="M1 1 q5 -1 4 -6 q-1 -7 -9 -6 q-10 1 -9 11 q1 12 14 11"/></g>
    <g transform="translate(118.0 319.2) rotate(-2.0) scale(0.85)"><!-- lightning --><path d="M2 -11 l-9 12 h6 l-3 10 l10 -13 h-6 z"/></g>
    <g transform="translate(173.5 318.1) rotate(-6.1) scale(0.85)"><!-- dumbbell --><path d="M-14 -7 v14 M-9 -10 v20 M9 -10 v20 M14 -7 v14 M-9 0 h18"/></g>
    <g transform="translate(227.8 319.1) rotate(-8.4) scale(0.85)"><!-- breath --><path d="M-10 -6 q4 -3 8 0 t8 0 M-10 0 q4 -3 8 0 t8 0 M-10 6 q4 -3 8 0 t8 0"/></g>
    <g transform="translate(290.6 320.8) rotate(-2.3) scale(0.85)"><!-- bowl --><path d="M-12 -2 h24"/><path d="M-12 -2 a12 11 0 0 0 24 0"/><path d="M5 -14 l7 7"/><circle cx="3.5" cy="-15.5" r="2.5"/><path d="M17 -8 q3 4 0 8"/></g>
    <g transform="translate(342.0 314.8) rotate(16.0) scale(1.1)"><!-- shoe --><path d="M-15 5 q-1 -9 6 -9 q5 0 8 5 q3 4 8 4 h7 q2 5 -3 5 h-24 q-2 0 -2 -5"/><path d="M-5 -2 l3 3 M-1 -4 l3 3"/></g>
    <g transform="translate(410.4 318.2) rotate(0.1) scale(1.1)"><!-- stressball --><circle r="8"/><path d="M-12 -3 q-2 3 0 6 M12 -3 q2 3 0 6"/></g>
    <g transform="translate(467.9 313.7) rotate(-4.7) scale(1.1)"><!-- heart --><path d="M0 9 C -11 2 -10 -8 -4 -8 C -1 -8 0 -5 0 -5 C 0 -5 1 -8 4 -8 C 10 -8 11 2 0 9 Z"/><path d="M-8 -1 h4 l2 -4 l3 7 l2 -3 h4"/></g>
    <g transform="translate(31.4 377.8) rotate(-14.6) scale(0.85)"><!-- stopwatch --><circle cx="0" cy="2" r="11"/><path d="M0 2 v-6 M0 -13 v4 M-4 -13 h8 M9 -9 l3 -3"/></g>
    <g transform="translate(90.0 378.9) rotate(10.7) scale(0.6)"><!-- jumprope --><path d="M-12 -6 q-5 14 9 16 q14 2 16 -12"/><path d="M-12 -6 l-2 -6 M13 -2 l3 -6"/></g>
    <g transform="translate(148.7 377.3) rotate(-11.6) scale(0.85)"><!-- target --><circle r="10"/><circle r="5.5"/><circle r="1.4"/></g>
    <g transform="translate(198.2 371.7) rotate(-8.5) scale(1.1)"><!-- sparkle --><path d="M0 -9 L2 -2 L9 0 L2 2 L0 9 L-2 2 L-9 0 L-2 -2 Z"/></g>
    <g transform="translate(263.0 377.7) rotate(17.2) scale(0.85)"><!-- moon --><path d="M3 -11 a11 11 0 1 0 7 17 a9 9 0 0 1 -7 -17"/><path d="M11 -4 v6 M8 -1 h6"/></g>
    <g transform="translate(317.8 375.1) rotate(-7.8) scale(1.1)"><!-- band --><circle cx="-14" cy="-7" r="3.5"/><circle cx="14" cy="7" r="3.5"/><path d="M-11 -5 C -4 1 4 -1 11 5"/></g>
    <g transform="translate(377.4 373.5) rotate(16.0) scale(0.6)"><!-- mat --><circle r="7"/><path d="M0 0 q4 0 4 -4"/><path d="M-13 10 h26"/></g>
    <g transform="translate(432.2 377.2) rotate(13.0) scale(0.6)"><!-- dowel --><path d="M-13 13 L13 -13 M-11 6 l5 5 M6 -11 l5 5"/></g>
    <g transform="translate(495.2 377.8) rotate(11.2) scale(0.6)"><!-- confetti --><path d="M-8 -8 l3 3 M7 -10 l2 4 M-10 5 l4 2 M8 8 l-3 -3"/><circle cx="0" cy="-2" r="1.7"/><circle cx="10" cy="0" r="1.7"/><circle cx="-6" cy="-13" r="1.7"/></g>
    <g transform="translate(57.9 438.0) rotate(1.8) scale(0.85)"><!-- dumbbell --><path d="M-14 -7 v14 M-9 -10 v20 M9 -10 v20 M14 -7 v14 M-9 0 h18"/></g>
    <g transform="translate(112.2 439.2) rotate(14.5) scale(0.6)"><!-- stopwatch --><circle cx="0" cy="2" r="11"/><path d="M0 2 v-6 M0 -13 v4 M-4 -13 h8 M9 -9 l3 -3"/></g>
    <g transform="translate(173.7 429.9) rotate(-0.0) scale(0.85)"><!-- heart --><path d="M0 9 C -11 2 -10 -8 -4 -8 C -1 -8 0 -5 0 -5 C 0 -5 1 -8 4 -8 C 10 -8 11 2 0 9 Z"/><path d="M-8 -1 h4 l2 -4 l3 7 l2 -3 h4"/></g>
    <g transform="translate(234.1 434.1) rotate(-2.1) scale(0.6)"><!-- breath --><path d="M-10 -6 q4 -3 8 0 t8 0 M-10 0 q4 -3 8 0 t8 0 M-10 6 q4 -3 8 0 t8 0"/></g>
    <g transform="translate(292.6 435.2) rotate(-16.4) scale(0.85)"><!-- moon --><path d="M3 -11 a11 11 0 1 0 7 17 a9 9 0 0 1 -7 -17"/><path d="M11 -4 v6 M8 -1 h6"/></g>
    <g transform="translate(343.2 430.5) rotate(-4.5) scale(1.1)"><!-- bicep --><path d="M-11 11 q-1 -13 7 -15 l1 -5 q0 -2 2 -2 l4 1 q2 1 1 3 l-1 5 q8 3 7 13"/><circle cx="3" cy="-9" r="2.2"/></g>
    <g transform="translate(410.1 437.2) rotate(-14.9) scale(0.6)"><!-- sun --><circle r="6"/><path d="M0 -13 v4 M0 9 v4 M-13 0 h4 M9 0 h4 M-9 -9 l2.5 2.5 M6.5 6.5 l2.5 2.5 M-9 9 l2.5 -2.5 M6.5 -6.5 l2.5 -2.5"/></g>
    <g transform="translate(461.2 437.4) rotate(-8.3) scale(1.1)"><!-- bowl --><path d="M-12 -2 h24"/><path d="M-12 -2 a12 11 0 0 0 24 0"/><path d="M5 -14 l7 7"/><circle cx="3.5" cy="-15.5" r="2.5"/><path d="M17 -8 q3 4 0 8"/></g>
    <g transform="translate(30.5 497.9) rotate(14.0) scale(0.6)"><!-- mug --><rect x="-10" y="-4" width="15" height="13" rx="3"/><path d="M5 -2 a4.5 4.5 0 0 1 0 9"/><path d="M-6 -9 q2 -3 0 -6 M1 -9 q2 -3 0 -6"/></g>
    <g transform="translate(82.2 494.5) rotate(-9.4) scale(0.85)"><!-- check --><circle r="9"/><path d="M-4 0 l3 3 l6 -7"/></g>
    <g transform="translate(142.3 490.1) rotate(7.9) scale(0.85)"><!-- roller --><ellipse cx="-10" cy="0" rx="4" ry="8"/><path d="M-10 -8 h20 a4 8 0 0 1 0 16 h-20"/></g>
    <g transform="translate(202.9 494.1) rotate(-14.1) scale(0.85)"><!-- stressball --><circle r="8"/><path d="M-12 -3 q-2 3 0 6 M12 -3 q2 3 0 6"/></g>
    <g transform="translate(263.3 498.0) rotate(-13.8) scale(0.6)"><!-- bottle --><rect x="-5" y="-7" width="10" height="19" rx="3"/><path d="M-3 -7 v-4 h6 v4 M-5 1 h10"/></g>
    <g transform="translate(313.4 491.1) rotate(-9.4) scale(1.1)"><!-- target --><circle r="10"/><circle r="5.5"/><circle r="1.4"/></g>
    <g transform="translate(382.9 494.0) rotate(12.2) scale(0.85)"><!-- spiral --><path d="M1 1 q5 -1 4 -6 q-1 -7 -9 -6 q-10 1 -9 11 q1 12 14 11"/></g>
    <g transform="translate(436.8 487.4) rotate(8.4) scale(0.85)"><!-- band --><circle cx="-14" cy="-7" r="3.5"/><circle cx="14" cy="7" r="3.5"/><path d="M-11 -5 C -4 1 4 -1 11 5"/></g>
    <g transform="translate(491.5 489.5) rotate(10.3) scale(0.6)"><!-- zzz --><path d="M-9 -9 h8 l-8 8 h8"/><path d="M3 -2 h6 l-6 6 h6"/></g>
    <g transform="translate(53.7 546.0) rotate(9.8) scale(0.85)"><!-- shoe --><path d="M-15 5 q-1 -9 6 -9 q5 0 8 5 q3 4 8 4 h7 q2 5 -3 5 h-24 q-2 0 -2 -5"/><path d="M-5 -2 l3 3 M-1 -4 l3 3"/></g>
    <g transform="translate(120.4 554.5) rotate(-0.2) scale(0.85)"><!-- jumprope --><path d="M-12 -6 q-5 14 9 16 q14 2 16 -12"/><path d="M-12 -6 l-2 -6 M13 -2 l3 -6"/></g>
    <g transform="translate(170.1 546.7) rotate(1.9) scale(0.6)"><!-- hourglass --><path d="M-6 -10 h12 M-6 10 h12 M-5 -10 q0 7 5 10 q-5 3 -5 10 M5 -10 q0 7 -5 10 q5 3 5 10"/></g>
    <g transform="translate(228.5 554.2) rotate(-9.3) scale(0.85)"><!-- confetti --><path d="M-8 -8 l3 3 M7 -10 l2 4 M-10 5 l4 2 M8 8 l-3 -3"/><circle cx="0" cy="-2" r="1.7"/><circle cx="10" cy="0" r="1.7"/><circle cx="-6" cy="-13" r="1.7"/></g>
    <g transform="translate(291.9 552.2) rotate(2.0) scale(1.1)"><!-- trophy --><path d="M-7 -11 h14 v6 a7 7 0 0 1 -14 0 z"/><path d="M-7 -9 q-5 0 -4 5 q1 4 4 3 M7 -9 q5 0 4 5 q-1 4 -4 3"/><path d="M0 2 v5 M-5 11 h10 M-3 7.5 h6"/></g>
    <g transform="translate(353.1 551.3) rotate(8.8) scale(0.85)"><!-- footprints --><ellipse cx="-6" cy="-2" rx="3.5" ry="6"/><circle cx="-6" cy="-10.5" r="1.7"/><ellipse cx="6" cy="7" rx="3.5" ry="6"/><circle cx="6" cy="-1.5" r="1.7"/></g>
    <g transform="translate(411.5 552.0) rotate(-7.8) scale(1.1)"><!-- sparkle --><path d="M0 -9 L2 -2 L9 0 L2 2 L0 9 L-2 2 L-9 0 L-2 -2 Z"/></g>
    <g transform="translate(461.9 553.5) rotate(9.4) scale(1.1)"><!-- towel --><path d="M-10 -12 h14 q4 0 4 4 v16 M-10 -12 v20 q0 4 4 4 h13"/></g>
    <g transform="translate(33.4 608.5) rotate(-11.4) scale(0.85)"><!-- lightning --><path d="M2 -11 l-9 12 h6 l-3 10 l10 -13 h-6 z"/></g>
    <g transform="translate(87.1 605.3) rotate(12.7) scale(0.85)"><!-- banana --><path d="M-10 -4 q0 12 13 12 q5 0 7 -3 q-4 1 -8 0 q-10 -2 -9 -9 z"/><path d="M-10 -4 l-1.5 -3.5"/></g>
    <g transform="translate(140.6 614.9) rotate(-10.4) scale(1.1)"><!-- dowel --><path d="M-13 13 L13 -13 M-11 6 l5 5 M6 -11 l5 5"/></g>
    <g transform="translate(203.1 610.4) rotate(-0.6) scale(0.85)"><!-- mat --><circle r="7"/><path d="M0 0 q4 0 4 -4"/><path d="M-13 10 h26"/></g>
    <g transform="translate(256.9 614.7) rotate(11.9) scale(0.85)"><!-- kettlebell --><circle cy="4" r="9.5"/><path d="M-5.5 -3 a 7 7 0 0 1 11 0"/></g>
    <g transform="translate(315.5 609.2) rotate(9.4) scale(0.85)"><!-- target --><circle r="10"/><circle r="5.5"/><circle r="1.4"/></g>
    <g transform="translate(375.4 611.7) rotate(15.5) scale(0.85)"><!-- spiral --><path d="M1 1 q5 -1 4 -6 q-1 -7 -9 -6 q-10 1 -9 11 q1 12 14 11"/></g>
    <g transform="translate(436.4 613.8) rotate(-1.4) scale(0.85)"><!-- hourglass --><path d="M-6 -10 h12 M-6 10 h12 M-5 -10 q0 7 5 10 q-5 3 -5 10 M5 -10 q0 7 -5 10 q5 3 5 10"/></g>
    <g transform="translate(493.8 608.9) rotate(-2.1) scale(1.1)"><!-- bowl --><path d="M-12 -2 h24"/><path d="M-12 -2 a12 11 0 0 0 24 0"/><path d="M5 -14 l7 7"/><circle cx="3.5" cy="-15.5" r="2.5"/><path d="M17 -8 q3 4 0 8"/></g>
    <g transform="translate(61.0 662.5) rotate(7.7) scale(0.85)"><!-- mat --><circle r="7"/><path d="M0 0 q4 0 4 -4"/><path d="M-13 10 h26"/></g>
    <g transform="translate(121.3 671.0) rotate(-0.7) scale(0.85)"><!-- kettlebell --><circle cy="4" r="9.5"/><path d="M-5.5 -3 a 7 7 0 0 1 11 0"/></g>
    <g transform="translate(178.9 661.7) rotate(0.6) scale(1.1)"><!-- banana --><path d="M-10 -4 q0 12 13 12 q5 0 7 -3 q-4 1 -8 0 q-10 -2 -9 -9 z"/><path d="M-10 -4 l-1.5 -3.5"/></g>
    <g transform="translate(234.2 667.7) rotate(4.0) scale(0.85)"><!-- heart --><path d="M0 9 C -11 2 -10 -8 -4 -8 C -1 -8 0 -5 0 -5 C 0 -5 1 -8 4 -8 C 10 -8 11 2 0 9 Z"/><path d="M-8 -1 h4 l2 -4 l3 7 l2 -3 h4"/></g>
    <g transform="translate(292.0 672.8) rotate(17.3) scale(0.6)"><!-- jumprope --><path d="M-12 -6 q-5 14 9 16 q14 2 16 -12"/><path d="M-12 -6 l-2 -6 M13 -2 l3 -6"/></g>
    <g transform="translate(351.7 672.5) rotate(11.2) scale(0.6)"><!-- stopwatch --><circle cx="0" cy="2" r="11"/><path d="M0 2 v-6 M0 -13 v4 M-4 -13 h8 M9 -9 l3 -3"/></g>
    <g transform="translate(401.1 672.9) rotate(-16.7) scale(1.1)"><!-- band --><circle cx="-14" cy="-7" r="3.5"/><circle cx="14" cy="7" r="3.5"/><path d="M-11 -5 C -4 1 4 -1 11 5"/></g>
    <g transform="translate(468.5 669.2) rotate(9.9) scale(0.85)"><!-- check --><circle r="9"/><path d="M-4 0 l3 3 l6 -7"/></g>
    <g transform="translate(33.1 724.4) rotate(15.2) scale(0.85)"><!-- towel --><path d="M-10 -12 h14 q4 0 4 4 v16 M-10 -12 v20 q0 4 4 4 h13"/></g>
    <g transform="translate(84.0 720.9) rotate(-4.5) scale(0.85)"><!-- bicep --><path d="M-11 11 q-1 -13 7 -15 l1 -5 q0 -2 2 -2 l4 1 q2 1 1 3 l-1 5 q8 3 7 13"/><circle cx="3" cy="-9" r="2.2"/></g>
    <g transform="translate(139.6 720.7) rotate(-9.4) scale(0.6)"><!-- trophy --><path d="M-7 -11 h14 v6 a7 7 0 0 1 -14 0 z"/><path d="M-7 -9 q-5 0 -4 5 q1 4 4 3 M7 -9 q5 0 4 5 q-1 4 -4 3"/><path d="M0 2 v5 M-5 11 h10 M-3 7.5 h6"/></g>
    <g transform="translate(201.5 726.6) rotate(17.1) scale(0.85)"><!-- confetti --><path d="M-8 -8 l3 3 M7 -10 l2 4 M-10 5 l4 2 M8 8 l-3 -3"/><circle cx="0" cy="-2" r="1.7"/><circle cx="10" cy="0" r="1.7"/><circle cx="-6" cy="-13" r="1.7"/></g>
    <g transform="translate(264.5 727.9) rotate(-17.4) scale(0.85)"><!-- dowel --><path d="M-13 13 L13 -13 M-11 6 l5 5 M6 -11 l5 5"/></g>
    <g transform="translate(323.5 722.1) rotate(3.3) scale(0.85)"><!-- mug --><rect x="-10" y="-4" width="15" height="13" rx="3"/><path d="M5 -2 a4.5 4.5 0 0 1 0 9"/><path d="M-6 -9 q2 -3 0 -6 M1 -9 q2 -3 0 -6"/></g>
    <g transform="translate(376.6 723.6) rotate(12.3) scale(0.6)"><!-- sun --><circle r="6"/><path d="M0 -13 v4 M0 9 v4 M-13 0 h4 M9 0 h4 M-9 -9 l2.5 2.5 M6.5 6.5 l2.5 2.5 M-9 9 l2.5 -2.5 M6.5 -6.5 l2.5 -2.5"/></g>
    <g transform="translate(432.8 724.6) rotate(1.1) scale(0.85)"><!-- lightning --><path d="M2 -11 l-9 12 h6 l-3 10 l10 -13 h-6 z"/></g>
    <g transform="translate(489.1 726.1) rotate(-15.3) scale(0.6)"><!-- bottle --><rect x="-5" y="-7" width="10" height="19" rx="3"/><path d="M-3 -7 v-4 h6 v4 M-5 1 h10"/></g>
    <g transform="translate(174.8 60.7) rotate(-3.9)"><path d="M0 -4 L1.5 0 L0 4 L-1.5 0 Z"/></g>
    <g transform="translate(235.8 55.5) rotate(6.5)"><path d="M-7 0 q2 -4 4 0 t4 0 t4 0"/></g>
    <g transform="translate(112.5 112.8) rotate(14.7)"><circle r="2" fill="#828282" stroke="none"/></g>
    <g transform="translate(174.2 112.5) rotate(8.8)"><path d="M0 -4 L1.5 0 L0 4 L-1.5 0 Z"/></g>
    <g transform="translate(231.2 118.6) rotate(-5.6)"><circle r="3.5"/></g>
    <g transform="translate(407.0 116.7) rotate(12.6)"><path d="M0 -4 L1.5 0 L0 4 L-1.5 0 Z"/></g>
    <g transform="translate(464.7 115.3) rotate(3.3)"><circle r="3.5"/></g>
    <g transform="translate(59.7 175.9) rotate(-7.9)"><path d="M-3 -3 l6 6 M3 -3 l-6 6"/></g>
    <g transform="translate(174.8 172.7) rotate(6.0)"><path d="M-3 -3 l6 6 M3 -3 l-6 6"/></g>
    <g transform="translate(351.3 174.1) rotate(15.0)"><circle r="3.5"/></g>
    <g transform="translate(404.6 177.9) rotate(0.2)"><path d="M-3 -3 l6 6 M3 -3 l-6 6"/></g>
    <g transform="translate(465.2 174.8) rotate(17.6)"><circle r="3.5"/></g>
    <g transform="translate(119.6 230.5) rotate(0.4)"><path d="M0 -5 v10 M-5 0 h10"/></g>
    <g transform="translate(172.3 235.6) rotate(4.6)"><circle r="3.5"/></g>
    <g transform="translate(289.6 229.4) rotate(2.5)"><path d="M-3 -3 l6 6 M3 -3 l-6 6"/></g>
    <g transform="translate(175.0 289.6) rotate(3.2)"><path d="M0 -4 L1.5 0 L0 4 L-1.5 0 Z"/></g>
    <g transform="translate(287.4 286.0) rotate(7.6)"><path d="M0 -5 v10 M-5 0 h10"/></g>
    <g transform="translate(344.2 287.0) rotate(5.4)"><circle r="3.5"/></g>
    <g transform="translate(405.7 291.6) rotate(-13.1)"><path d="M-7 0 q2 -4 4 0 t4 0 t4 0"/></g>
    <g transform="translate(462.2 291.0) rotate(-5.8)"><path d="M0 -5 v10 M-5 0 h10"/></g>
    <g transform="translate(118.5 344.7) rotate(-10.8)"><path d="M0 -5 v10 M-5 0 h10"/></g>
    <g transform="translate(345.4 349.3) rotate(4.0)"><path d="M-7 0 q2 -4 4 0 t4 0 t4 0"/></g>
    <g transform="translate(463.0 345.3) rotate(14.5)"><path d="M0 -4 L1.5 0 L0 4 L-1.5 0 Z"/></g>
    <g transform="translate(54.3 408.9) rotate(-14.6)"><path d="M0 -4 L1.5 0 L0 4 L-1.5 0 Z"/></g>
    <g transform="translate(113.8 467.4) rotate(-4.0)"><path d="M-7 0 q2 -4 4 0 t4 0 t4 0"/></g>
    <g transform="translate(230.6 463.0) rotate(-5.9)"><path d="M0 -4 L1.5 0 L0 4 L-1.5 0 Z"/></g>
    <g transform="translate(406.7 463.9) rotate(0.6)"><path d="M-7 0 q2 -4 4 0 t4 0 t4 0"/></g>
    <g transform="translate(62.0 519.8) rotate(-2.6)"><circle r="2" fill="#828282" stroke="none"/></g>
    <g transform="translate(112.4 519.0) rotate(-5.8)"><path d="M-7 0 q2 -4 4 0 t4 0 t4 0"/></g>
    <g transform="translate(231.0 526.0) rotate(8.1)"><path d="M0 -5 v10 M-5 0 h10"/></g>
    <g transform="translate(292.0 520.3) rotate(3.0)"><circle r="3.5"/></g>
    <g transform="translate(350.8 521.0) rotate(-13.8)"><path d="M-3 -3 l6 6 M3 -3 l-6 6"/></g>
    <g transform="translate(408.0 522.6) rotate(-15.6)"><path d="M0 -4 L1.5 0 L0 4 L-1.5 0 Z"/></g>
    <g transform="translate(60.7 577.8) rotate(17.0)"><path d="M0 -5 v10 M-5 0 h10"/></g>
    <g transform="translate(112.2 579.2) rotate(-16.1)"><path d="M0 -5 v10 M-5 0 h10"/></g>
    <g transform="translate(173.2 576.1) rotate(16.6)"><path d="M-7 0 q2 -4 4 0 t4 0 t4 0"/></g>
    <g transform="translate(229.0 577.5) rotate(6.8)"><path d="M-7 0 q2 -4 4 0 t4 0 t4 0"/></g>
    <g transform="translate(465.7 580.1) rotate(11.6)"><circle r="3.5"/></g>
    <g transform="translate(60.7 641.3) rotate(15.6)"><circle r="3.5"/></g>
    <g transform="translate(112.1 641.6) rotate(6.2)"><path d="M0 -4 L1.5 0 L0 4 L-1.5 0 Z"/></g>
    <g transform="translate(175.1 639.5) rotate(10.6)"><circle r="2" fill="#828282" stroke="none"/></g>
    <g transform="translate(290.2 637.0) rotate(-15.2)"><circle r="3.5"/></g>
    <g transform="translate(54.3 698.5) rotate(-16.6)"><path d="M-3 -3 l6 6 M3 -3 l-6 6"/></g>
    <g transform="translate(119.6 699.6) rotate(9.7)"><circle r="2" fill="#828282" stroke="none"/></g>
    <g transform="translate(172.3 692.6) rotate(5.0)"><path d="M0 -4 L1.5 0 L0 4 L-1.5 0 Z"/></g>
    <g transform="translate(409.1 697.5) rotate(4.5)"><path d="M0 -5 v10 M-5 0 h10"/></g>
  </g>
</svg>
